G04*
G04 #@! TF.GenerationSoftware,Altium Limited,Altium Designer,19.0.10 (269)*
G04*
G04 Layer_Color=65535*
%FSLAX44Y44*%
%MOMM*%
G71*
G01*
G75*
%ADD10C,0.2500*%
%ADD11C,0.1000*%
%ADD12C,0.2000*%
%ADD13C,0.2032*%
%ADD14C,0.2540*%
G36*
X755923Y908019D02*
Y907606D01*
X759642D01*
Y907193D01*
Y906779D01*
X762122D01*
Y906366D01*
Y905953D01*
X764601D01*
Y905540D01*
Y905127D01*
X766254D01*
Y904713D01*
X766667D01*
Y904300D01*
X767493D01*
Y903887D01*
X768320D01*
Y903474D01*
X769146D01*
Y903061D01*
X769972D01*
Y902647D01*
X770799D01*
Y902234D01*
X771625D01*
Y901821D01*
Y901408D01*
X772865D01*
Y900994D01*
X773278D01*
Y900581D01*
X774105D01*
Y900168D01*
Y899755D01*
X775344D01*
Y899342D01*
Y898929D01*
X776584D01*
Y898515D01*
Y898102D01*
X777823D01*
Y897689D01*
Y897276D01*
Y896862D01*
X778650D01*
Y896449D01*
Y896036D01*
X779476D01*
Y895623D01*
Y895210D01*
X780303D01*
Y894796D01*
Y894383D01*
X781129D01*
Y893970D01*
Y893557D01*
X782369D01*
Y893144D01*
Y892730D01*
X794352D01*
Y893144D01*
X798071D01*
Y893557D01*
X800550D01*
Y893970D01*
X803029D01*
Y894383D01*
X805095D01*
Y894796D01*
X807574D01*
Y895210D01*
X808401D01*
Y895623D01*
X811293D01*
Y896036D01*
X812120D01*
Y896449D01*
X814599D01*
Y896862D01*
Y897276D01*
X817078D01*
Y897689D01*
Y898102D01*
X819971D01*
Y898515D01*
Y898929D01*
X822450D01*
Y899342D01*
Y899755D01*
X824929D01*
Y900168D01*
Y900581D01*
X826582D01*
Y900994D01*
X827408D01*
Y901408D01*
X828235D01*
Y901821D01*
X829474D01*
Y902234D01*
X830301D01*
Y902647D01*
X831540D01*
Y903061D01*
X831954D01*
Y903474D01*
X833193D01*
Y903887D01*
X833606D01*
Y904300D01*
X834846D01*
Y903887D01*
Y903474D01*
X834020D01*
Y903061D01*
Y902647D01*
X833193D01*
Y902234D01*
X832780D01*
Y901821D01*
X832367D01*
Y901408D01*
X831954D01*
Y900994D01*
X831127D01*
Y900581D01*
Y900168D01*
X830714D01*
Y899755D01*
X830301D01*
Y899342D01*
Y898929D01*
X828648D01*
Y898515D01*
Y898102D01*
X827822D01*
Y897689D01*
Y897276D01*
X826582D01*
Y896862D01*
Y896449D01*
X824929D01*
Y896036D01*
Y895623D01*
X824103D01*
Y895210D01*
X823276D01*
Y894796D01*
X822450D01*
Y894383D01*
Y893970D01*
X820797D01*
Y893557D01*
Y893144D01*
X819557D01*
Y892730D01*
X818731D01*
Y892317D01*
X818318D01*
Y891904D01*
X817078D01*
Y891491D01*
Y891077D01*
X814599D01*
Y890664D01*
Y890251D01*
X812946D01*
Y889838D01*
Y889425D01*
X810054D01*
Y889012D01*
Y888598D01*
X807574D01*
Y888185D01*
Y887772D01*
X804269D01*
Y887359D01*
X803855D01*
Y886945D01*
X800550D01*
Y886532D01*
X799723D01*
Y886119D01*
X796004D01*
Y885706D01*
X793525D01*
Y885293D01*
X780716D01*
Y885706D01*
X779063D01*
Y886119D01*
X776997D01*
Y886532D01*
Y886945D01*
X776171D01*
Y887359D01*
Y887772D01*
X775344D01*
Y888185D01*
Y888598D01*
X774518D01*
Y889012D01*
Y889425D01*
X773691D01*
Y889838D01*
Y890251D01*
X772865D01*
Y890664D01*
Y891077D01*
X772038D01*
Y891491D01*
Y891904D01*
X771212D01*
Y892317D01*
X770799D01*
Y892730D01*
Y893144D01*
X769972D01*
Y893557D01*
Y893970D01*
X769146D01*
Y894383D01*
Y894796D01*
X767906D01*
Y895210D01*
X767493D01*
Y895623D01*
X766667D01*
Y896036D01*
Y896449D01*
X765427D01*
Y896862D01*
Y897276D01*
X763774D01*
Y897689D01*
Y898102D01*
X762122D01*
Y898515D01*
Y898929D01*
X761295D01*
Y899342D01*
Y899755D01*
X760055D01*
Y900168D01*
X759229D01*
Y900581D01*
X758403D01*
Y900994D01*
X757163D01*
Y901408D01*
X756750D01*
Y901821D01*
X755097D01*
Y902234D01*
X754271D01*
Y902647D01*
X752205D01*
Y903061D01*
X751791D01*
Y903474D01*
X748072D01*
Y903887D01*
Y904300D01*
X732371D01*
Y903887D01*
Y903474D01*
X730304D01*
Y903887D01*
Y904300D01*
X731544D01*
Y904713D01*
Y905127D01*
X733197D01*
Y905540D01*
Y905953D01*
X735676D01*
Y906366D01*
Y906779D01*
X738569D01*
Y907193D01*
Y907606D01*
X741874D01*
Y908019D01*
X743114D01*
Y908432D01*
X753857D01*
Y908019D01*
X755097D01*
Y908432D01*
X755923D01*
Y908019D01*
D02*
G37*
G36*
X696422Y878268D02*
Y877855D01*
Y877442D01*
Y877029D01*
Y876615D01*
Y876202D01*
Y875789D01*
Y875376D01*
Y874962D01*
Y874549D01*
X695595D01*
Y874136D01*
Y873723D01*
Y873310D01*
Y872896D01*
Y872483D01*
Y872070D01*
Y871657D01*
Y871244D01*
X695182D01*
Y870830D01*
Y870417D01*
Y870004D01*
X694769D01*
Y869591D01*
Y869178D01*
Y868764D01*
Y868351D01*
X694355D01*
Y867938D01*
Y867525D01*
Y867112D01*
Y866698D01*
Y866285D01*
Y865872D01*
X693942D01*
Y865459D01*
Y865045D01*
Y864632D01*
X693529D01*
Y864219D01*
Y863806D01*
Y863393D01*
Y862979D01*
Y862566D01*
Y862153D01*
Y861740D01*
Y861327D01*
X693116D01*
Y860913D01*
Y860500D01*
X692703D01*
Y860087D01*
Y859674D01*
Y859261D01*
Y858847D01*
Y858434D01*
Y858021D01*
Y857608D01*
Y857195D01*
X692289D01*
Y856781D01*
X691876D01*
Y856368D01*
Y855955D01*
Y855542D01*
Y855128D01*
Y854715D01*
Y854302D01*
Y853889D01*
Y853476D01*
Y853062D01*
Y852649D01*
X691050D01*
Y852236D01*
Y851823D01*
Y851410D01*
Y850996D01*
Y850583D01*
Y850170D01*
Y849757D01*
Y849344D01*
Y848930D01*
Y848517D01*
X690637D01*
Y848104D01*
X690223D01*
Y847691D01*
Y847278D01*
Y846864D01*
Y846451D01*
Y846038D01*
Y845625D01*
Y845211D01*
Y844798D01*
Y844385D01*
Y843972D01*
X689397D01*
Y843559D01*
Y843146D01*
Y842732D01*
Y842319D01*
Y841906D01*
Y841493D01*
Y841079D01*
Y840666D01*
Y840253D01*
Y839840D01*
X688984D01*
Y840253D01*
X688571D01*
Y839840D01*
X688984D01*
Y839427D01*
X688571D01*
Y839013D01*
Y838600D01*
Y838187D01*
Y837774D01*
Y837361D01*
Y836947D01*
Y836534D01*
Y836121D01*
X688157D01*
Y835708D01*
X687744D01*
Y835294D01*
Y834881D01*
Y834468D01*
Y834055D01*
Y833642D01*
Y833229D01*
X687331D01*
Y832815D01*
Y832402D01*
Y831989D01*
Y831576D01*
X686918D01*
Y831162D01*
Y830749D01*
Y830336D01*
Y829923D01*
X686505D01*
Y829510D01*
Y829096D01*
Y828683D01*
Y828270D01*
Y827857D01*
Y827444D01*
Y827030D01*
X686091D01*
Y826617D01*
X674521D01*
Y827030D01*
Y827444D01*
X674935D01*
Y827857D01*
X675348D01*
Y828270D01*
Y828683D01*
Y829096D01*
Y829510D01*
Y829923D01*
Y830336D01*
Y830749D01*
X675761D01*
Y831162D01*
Y831576D01*
Y831989D01*
Y832402D01*
X676174D01*
Y832815D01*
Y833229D01*
Y833642D01*
X676588D01*
Y834055D01*
Y834468D01*
Y834881D01*
Y835294D01*
Y835708D01*
Y836121D01*
Y836534D01*
X677001D01*
Y836947D01*
Y837361D01*
X677414D01*
Y837774D01*
Y838187D01*
Y838600D01*
Y839013D01*
Y839427D01*
Y839840D01*
Y840253D01*
Y840666D01*
Y841079D01*
X678240D01*
Y841493D01*
Y841906D01*
Y842319D01*
Y842732D01*
Y843146D01*
Y843559D01*
Y843972D01*
Y844385D01*
Y844798D01*
Y845211D01*
X678654D01*
Y845625D01*
X679067D01*
Y846038D01*
Y846451D01*
Y846864D01*
Y847278D01*
Y847691D01*
Y848104D01*
Y848517D01*
Y848930D01*
Y849344D01*
Y849757D01*
X679893D01*
Y850170D01*
Y850583D01*
Y850996D01*
Y851410D01*
Y851823D01*
Y852236D01*
X679480D01*
Y852649D01*
X679067D01*
Y852236D01*
Y851823D01*
X677827D01*
Y851410D01*
Y850996D01*
Y850583D01*
X677414D01*
Y850170D01*
X677001D01*
Y849757D01*
Y849344D01*
X676174D01*
Y848930D01*
Y848517D01*
Y848104D01*
X675348D01*
Y847691D01*
Y847278D01*
Y846864D01*
Y846451D01*
X674521D01*
Y846038D01*
Y845625D01*
X673695D01*
Y845211D01*
Y844798D01*
X672869D01*
Y844385D01*
Y843972D01*
X672455D01*
Y843559D01*
Y843146D01*
X672042D01*
Y842732D01*
X671629D01*
Y842319D01*
X671216D01*
Y841906D01*
X670803D01*
Y841493D01*
Y841079D01*
X670389D01*
Y840666D01*
X669976D01*
Y840253D01*
Y839840D01*
Y839427D01*
X662539D01*
Y839840D01*
Y840253D01*
X662125D01*
Y840666D01*
X661712D01*
Y841079D01*
Y841493D01*
Y841906D01*
Y842319D01*
X661299D01*
Y842732D01*
Y843146D01*
X660886D01*
Y843559D01*
Y843972D01*
X660472D01*
Y844385D01*
Y844798D01*
Y845211D01*
Y845625D01*
X659646D01*
Y846038D01*
Y846451D01*
Y846864D01*
Y847278D01*
Y847691D01*
Y848104D01*
X658820D01*
Y848517D01*
Y848930D01*
Y849344D01*
Y849757D01*
Y850170D01*
X657993D01*
Y850583D01*
Y850996D01*
Y851410D01*
Y851823D01*
X657580D01*
Y852236D01*
X656340D01*
Y851823D01*
X655927D01*
Y851410D01*
Y850996D01*
Y850583D01*
Y850170D01*
Y849757D01*
Y849344D01*
Y848930D01*
Y848517D01*
Y848104D01*
X655514D01*
Y847691D01*
Y847278D01*
X655101D01*
Y846864D01*
Y846451D01*
Y846038D01*
Y845625D01*
Y845211D01*
Y844798D01*
Y844385D01*
Y843972D01*
Y843559D01*
X654688D01*
Y843146D01*
X654274D01*
Y842732D01*
Y842319D01*
Y841906D01*
Y841493D01*
Y841079D01*
Y840666D01*
Y840253D01*
Y839840D01*
Y839427D01*
X653448D01*
Y839013D01*
Y838600D01*
Y838187D01*
Y837774D01*
Y837361D01*
Y836947D01*
Y836534D01*
Y836121D01*
Y835708D01*
Y835294D01*
Y834881D01*
X652622D01*
Y834468D01*
Y834055D01*
Y833642D01*
Y833229D01*
Y832815D01*
Y832402D01*
Y831989D01*
Y831576D01*
Y831162D01*
Y830749D01*
X651795D01*
Y830336D01*
Y829923D01*
Y829510D01*
Y829096D01*
Y828683D01*
Y828270D01*
Y827857D01*
Y827444D01*
Y827030D01*
Y826617D01*
X609648D01*
Y827030D01*
Y827444D01*
Y827857D01*
X610061D01*
Y828270D01*
Y828683D01*
Y829096D01*
Y829510D01*
Y829923D01*
X610474D01*
Y830336D01*
Y830749D01*
Y831162D01*
Y831576D01*
X610888D01*
Y831989D01*
Y832402D01*
Y832815D01*
Y833229D01*
Y833642D01*
Y834055D01*
Y834468D01*
X611301D01*
Y834881D01*
Y835294D01*
X611714D01*
Y835708D01*
Y836121D01*
Y836534D01*
Y836947D01*
Y837361D01*
Y837774D01*
Y838187D01*
Y838600D01*
Y839013D01*
X612127D01*
Y839427D01*
X612540D01*
Y839840D01*
Y840253D01*
Y840666D01*
Y841079D01*
Y841493D01*
Y841906D01*
Y842319D01*
Y842732D01*
Y843146D01*
X612954D01*
Y843559D01*
X613367D01*
Y843972D01*
Y844385D01*
Y844798D01*
Y845211D01*
Y845625D01*
Y846038D01*
Y846451D01*
Y846864D01*
Y847278D01*
X613780D01*
Y847691D01*
Y848104D01*
X614193D01*
Y848517D01*
Y848930D01*
Y849344D01*
Y849757D01*
Y850170D01*
Y850583D01*
Y850996D01*
Y851410D01*
Y851823D01*
X615020D01*
Y852236D01*
Y852649D01*
Y853062D01*
Y853476D01*
Y853889D01*
Y854302D01*
Y854715D01*
Y855128D01*
Y855542D01*
Y855955D01*
X615846D01*
Y856368D01*
Y856781D01*
Y857195D01*
Y857608D01*
Y858021D01*
Y858434D01*
Y858847D01*
Y859261D01*
Y859674D01*
Y860087D01*
X616259D01*
Y860500D01*
X616672D01*
Y860913D01*
Y861327D01*
Y861740D01*
Y862153D01*
Y862566D01*
Y862979D01*
X617086D01*
Y863393D01*
Y863806D01*
Y864219D01*
Y864632D01*
Y865045D01*
X617499D01*
Y865459D01*
Y865872D01*
Y866285D01*
X617912D01*
Y866698D01*
Y867112D01*
Y867525D01*
Y867938D01*
Y868351D01*
Y868764D01*
Y869178D01*
X618325D01*
Y869591D01*
Y870004D01*
X618739D01*
Y870417D01*
Y870830D01*
Y871244D01*
Y871657D01*
Y872070D01*
Y872483D01*
Y872896D01*
Y873310D01*
Y873723D01*
X619152D01*
Y874136D01*
X619565D01*
Y874549D01*
Y874962D01*
Y875376D01*
Y875789D01*
Y876202D01*
Y876615D01*
Y877029D01*
Y877442D01*
Y877855D01*
Y878268D01*
X619978D01*
Y878681D01*
X631548D01*
Y878268D01*
Y877855D01*
Y877442D01*
Y877029D01*
X630722D01*
Y876615D01*
Y876202D01*
Y875789D01*
Y875376D01*
Y874962D01*
Y874549D01*
Y874136D01*
Y873723D01*
Y873310D01*
Y872896D01*
X629895D01*
Y872483D01*
Y872070D01*
Y871657D01*
Y871244D01*
Y870830D01*
Y870417D01*
Y870004D01*
Y869591D01*
Y869178D01*
Y868764D01*
Y868351D01*
X629069D01*
Y867938D01*
Y867525D01*
Y867112D01*
Y866698D01*
Y866285D01*
Y865872D01*
Y865459D01*
Y865045D01*
X628656D01*
Y864632D01*
Y864219D01*
X628242D01*
Y863806D01*
Y863393D01*
Y862979D01*
Y862566D01*
Y862153D01*
X627829D01*
Y861740D01*
Y861327D01*
Y860913D01*
Y860500D01*
Y860087D01*
Y859674D01*
X627416D01*
Y859261D01*
Y858847D01*
X627003D01*
Y858434D01*
Y858021D01*
Y857608D01*
Y857195D01*
Y856781D01*
Y856368D01*
Y855955D01*
Y855542D01*
Y855128D01*
X626589D01*
Y854715D01*
Y854302D01*
X626176D01*
Y853889D01*
Y853476D01*
Y853062D01*
Y852649D01*
Y852236D01*
Y851823D01*
Y851410D01*
Y850996D01*
X625763D01*
Y850583D01*
X625350D01*
Y850170D01*
Y849757D01*
Y849344D01*
Y848930D01*
Y848517D01*
Y848104D01*
Y847691D01*
Y847278D01*
Y846864D01*
Y846451D01*
X624523D01*
Y846038D01*
Y845625D01*
Y845211D01*
Y844798D01*
Y844385D01*
Y843972D01*
Y843559D01*
Y843146D01*
Y842732D01*
Y842319D01*
X624110D01*
Y841906D01*
X623697D01*
Y841493D01*
Y841079D01*
Y840666D01*
Y840253D01*
Y839840D01*
Y839427D01*
Y839013D01*
Y838600D01*
Y838187D01*
Y837774D01*
X622871D01*
Y837361D01*
Y836947D01*
X623697D01*
Y836534D01*
X641465D01*
Y836947D01*
X642291D01*
Y837361D01*
Y837774D01*
Y838187D01*
Y838600D01*
Y839013D01*
Y839427D01*
Y839840D01*
Y840253D01*
X643118D01*
Y840666D01*
Y841079D01*
Y841493D01*
Y841906D01*
Y842319D01*
Y842732D01*
Y843146D01*
Y843559D01*
Y843972D01*
Y844385D01*
X643531D01*
Y844798D01*
X643944D01*
Y845211D01*
Y845625D01*
Y846038D01*
Y846451D01*
Y846864D01*
Y847278D01*
Y847691D01*
Y848104D01*
Y848517D01*
Y848930D01*
X644771D01*
Y849344D01*
Y849757D01*
Y850170D01*
Y850583D01*
Y850996D01*
Y851410D01*
Y851823D01*
Y852236D01*
Y852649D01*
Y853062D01*
Y853476D01*
X645597D01*
Y853889D01*
Y854302D01*
Y854715D01*
Y855128D01*
Y855542D01*
Y855955D01*
Y856368D01*
Y856781D01*
X646010D01*
Y857195D01*
Y857608D01*
X646423D01*
Y858021D01*
Y858434D01*
Y858847D01*
Y859261D01*
X646837D01*
Y859674D01*
Y860087D01*
Y860500D01*
Y860913D01*
Y861327D01*
Y861740D01*
Y862153D01*
X647250D01*
Y862566D01*
Y862979D01*
X647663D01*
Y863393D01*
Y863806D01*
Y864219D01*
Y864632D01*
Y865045D01*
Y865459D01*
Y865872D01*
Y866285D01*
X648076D01*
Y866698D01*
X648489D01*
Y867112D01*
Y867525D01*
Y867938D01*
Y868351D01*
Y868764D01*
Y869178D01*
Y869591D01*
Y870004D01*
Y870417D01*
Y870830D01*
X649316D01*
Y871244D01*
Y871657D01*
Y872070D01*
Y872483D01*
Y872896D01*
Y873310D01*
Y873723D01*
Y874136D01*
Y874549D01*
Y874962D01*
X649729D01*
Y875376D01*
X650142D01*
Y875789D01*
Y876202D01*
Y876615D01*
Y877029D01*
Y877442D01*
Y877855D01*
Y878268D01*
Y878681D01*
X661299D01*
Y878268D01*
Y877855D01*
Y877442D01*
X661712D01*
Y877029D01*
X662125D01*
Y876615D01*
Y876202D01*
Y875789D01*
Y875376D01*
Y874962D01*
Y874549D01*
X662952D01*
Y874136D01*
Y873723D01*
Y873310D01*
Y872896D01*
Y872483D01*
Y872070D01*
Y871657D01*
X663365D01*
Y871244D01*
X663778D01*
Y870830D01*
Y870417D01*
Y870004D01*
Y869591D01*
Y869178D01*
X664191D01*
Y868764D01*
Y868351D01*
X664604D01*
Y867938D01*
Y867525D01*
Y867112D01*
Y866698D01*
Y866285D01*
X665018D01*
Y865872D01*
Y865459D01*
X665431D01*
Y865045D01*
Y864632D01*
Y864219D01*
X665844D01*
Y863806D01*
Y863393D01*
Y862979D01*
Y862566D01*
Y862153D01*
X666671D01*
Y861740D01*
Y861327D01*
Y860913D01*
Y860500D01*
Y860087D01*
Y859674D01*
Y859261D01*
X667497D01*
Y858847D01*
Y858434D01*
Y858021D01*
Y857608D01*
Y857195D01*
Y856781D01*
Y856368D01*
Y855955D01*
X669563D01*
Y856368D01*
Y856781D01*
X669976D01*
Y857195D01*
X670389D01*
Y857608D01*
Y858021D01*
X670803D01*
Y858434D01*
X671216D01*
Y858847D01*
Y859261D01*
X671629D01*
Y859674D01*
X672042D01*
Y860087D01*
Y860500D01*
X672869D01*
Y860913D01*
Y861327D01*
Y861740D01*
Y862153D01*
X673695D01*
Y862566D01*
Y862979D01*
X674521D01*
Y863393D01*
Y863806D01*
Y864219D01*
X675348D01*
Y864632D01*
Y865045D01*
X675761D01*
Y865459D01*
X676174D01*
Y865872D01*
X676588D01*
Y866285D01*
Y866698D01*
X677001D01*
Y867112D01*
X677414D01*
Y867525D01*
Y867938D01*
Y868351D01*
X678240D01*
Y868764D01*
Y869178D01*
X679067D01*
Y869591D01*
Y870004D01*
Y870417D01*
Y870830D01*
X679893D01*
Y871244D01*
Y871657D01*
X680720D01*
Y872070D01*
Y872483D01*
Y872896D01*
X681546D01*
Y873310D01*
Y873723D01*
Y874136D01*
X682372D01*
Y874549D01*
Y874962D01*
Y875376D01*
X683199D01*
Y875789D01*
Y876202D01*
X683612D01*
Y876615D01*
Y877029D01*
X684438D01*
Y877442D01*
Y877855D01*
X685265D01*
Y878268D01*
Y878681D01*
X696422D01*
Y878268D01*
D02*
G37*
G36*
X783195D02*
Y877855D01*
X782782D01*
Y877442D01*
Y877029D01*
Y876615D01*
Y876202D01*
Y875789D01*
Y875376D01*
X782369D01*
Y874962D01*
Y874549D01*
X781955D01*
Y874136D01*
Y873723D01*
Y873310D01*
Y872896D01*
Y872483D01*
Y872070D01*
Y871657D01*
Y871244D01*
X781542D01*
Y870830D01*
Y870417D01*
X781129D01*
Y870004D01*
Y869591D01*
Y869178D01*
X769146D01*
Y868764D01*
Y868351D01*
Y867938D01*
X768733D01*
Y867525D01*
Y867112D01*
Y866698D01*
X768320D01*
Y866285D01*
Y865872D01*
Y865459D01*
Y865045D01*
X767906D01*
Y864632D01*
Y864219D01*
Y863806D01*
Y863393D01*
Y862979D01*
Y862566D01*
Y862153D01*
X767493D01*
Y861740D01*
Y861327D01*
X767080D01*
Y860913D01*
Y860500D01*
Y860087D01*
Y859674D01*
Y859261D01*
Y858847D01*
Y858434D01*
Y858021D01*
X766667D01*
Y857608D01*
Y857195D01*
X766254D01*
Y856781D01*
Y856368D01*
Y855955D01*
Y855542D01*
Y855128D01*
Y854715D01*
Y854302D01*
Y853889D01*
Y853476D01*
X765427D01*
Y853062D01*
Y852649D01*
Y852236D01*
Y851823D01*
Y851410D01*
Y850996D01*
Y850583D01*
Y850170D01*
Y849757D01*
Y849344D01*
X765014D01*
Y848930D01*
X764601D01*
Y848517D01*
Y848104D01*
Y847691D01*
Y847278D01*
Y846864D01*
Y846451D01*
Y846038D01*
Y845625D01*
Y845211D01*
Y844798D01*
X763774D01*
Y844385D01*
Y843972D01*
Y843559D01*
Y843146D01*
Y842732D01*
Y842319D01*
Y841906D01*
Y841493D01*
Y841079D01*
Y840666D01*
Y840253D01*
X762948D01*
Y839840D01*
Y839427D01*
Y839013D01*
Y838600D01*
Y838187D01*
Y837774D01*
Y837361D01*
Y836947D01*
Y836534D01*
Y836121D01*
X762122D01*
Y835708D01*
Y835294D01*
Y834881D01*
Y834468D01*
Y834055D01*
Y833642D01*
Y833229D01*
Y832815D01*
Y832402D01*
X761708D01*
Y831989D01*
Y831576D01*
X761295D01*
Y831162D01*
Y830749D01*
Y830336D01*
Y829923D01*
X760882D01*
Y829510D01*
Y829096D01*
Y828683D01*
Y828270D01*
Y827857D01*
Y827444D01*
X760469D01*
Y827030D01*
Y826617D01*
X748899D01*
Y827030D01*
Y827444D01*
X749312D01*
Y827857D01*
Y828270D01*
X749725D01*
Y828683D01*
Y829096D01*
Y829510D01*
Y829923D01*
X750138D01*
Y830336D01*
Y830749D01*
Y831162D01*
Y831576D01*
Y831989D01*
Y832402D01*
X750552D01*
Y832815D01*
Y833229D01*
Y833642D01*
X750965D01*
Y834055D01*
Y834468D01*
Y834881D01*
Y835294D01*
Y835708D01*
Y836121D01*
Y836534D01*
Y836947D01*
X751378D01*
Y837361D01*
Y837774D01*
X751791D01*
Y838187D01*
Y838600D01*
Y839013D01*
Y839427D01*
Y839840D01*
Y840253D01*
Y840666D01*
Y841079D01*
X752205D01*
Y841493D01*
Y841906D01*
X752618D01*
Y842319D01*
Y842732D01*
Y843146D01*
Y843559D01*
Y843972D01*
Y844385D01*
Y844798D01*
Y845211D01*
Y845625D01*
X753444D01*
Y846038D01*
Y846451D01*
Y846864D01*
Y847278D01*
Y847691D01*
Y848104D01*
Y848517D01*
Y848930D01*
Y849344D01*
Y849757D01*
X753857D01*
Y850170D01*
X754271D01*
Y850583D01*
Y850996D01*
Y851410D01*
Y851823D01*
Y852236D01*
Y852649D01*
Y853062D01*
Y853476D01*
Y853889D01*
Y854302D01*
X755097D01*
Y854715D01*
Y855128D01*
Y855542D01*
Y855955D01*
Y856368D01*
Y856781D01*
Y857195D01*
Y857608D01*
Y858021D01*
Y858434D01*
Y858847D01*
X755923D01*
Y859261D01*
Y859674D01*
Y860087D01*
Y860500D01*
Y860913D01*
Y861327D01*
Y861740D01*
Y862153D01*
Y862566D01*
X756337D01*
Y862979D01*
X756750D01*
Y863393D01*
Y863806D01*
Y864219D01*
Y864632D01*
Y865045D01*
Y865459D01*
X757163D01*
Y865872D01*
Y866285D01*
Y866698D01*
Y867112D01*
Y867525D01*
X757576D01*
Y867938D01*
Y868351D01*
X756750D01*
Y868764D01*
Y869178D01*
X744767D01*
Y869591D01*
Y870004D01*
X745593D01*
Y870417D01*
Y870830D01*
Y871244D01*
Y871657D01*
Y872070D01*
Y872483D01*
Y872896D01*
Y873310D01*
Y873723D01*
Y874136D01*
X746006D01*
Y874549D01*
X746420D01*
Y874962D01*
Y875376D01*
Y875789D01*
Y876202D01*
Y876615D01*
Y877029D01*
Y877442D01*
Y877855D01*
Y878268D01*
Y878681D01*
X783195D01*
Y878268D01*
D02*
G37*
G36*
X610474D02*
Y877855D01*
Y877442D01*
Y877029D01*
X609648D01*
Y876615D01*
Y876202D01*
Y875789D01*
Y875376D01*
Y874962D01*
Y874549D01*
Y874136D01*
Y873723D01*
Y873310D01*
Y872896D01*
X608821D01*
Y872483D01*
Y872070D01*
Y871657D01*
Y871244D01*
Y870830D01*
Y870417D01*
Y870004D01*
Y869591D01*
Y869178D01*
X596838D01*
Y868764D01*
Y868351D01*
X595599D01*
Y867938D01*
Y867525D01*
Y867112D01*
Y866698D01*
Y866285D01*
Y865872D01*
Y865459D01*
Y865045D01*
Y864632D01*
Y864219D01*
X595186D01*
Y863806D01*
X594772D01*
Y863393D01*
Y862979D01*
Y862566D01*
Y862153D01*
Y861740D01*
Y861327D01*
Y860913D01*
Y860500D01*
Y860087D01*
Y859674D01*
X593946D01*
Y859261D01*
Y858847D01*
Y858434D01*
Y858021D01*
Y857608D01*
Y857195D01*
Y856781D01*
Y856368D01*
Y855955D01*
Y855542D01*
Y855128D01*
X593120D01*
Y854715D01*
Y854302D01*
Y853889D01*
Y853476D01*
Y853062D01*
Y852649D01*
Y852236D01*
Y851823D01*
Y851410D01*
Y850996D01*
X592293D01*
Y850583D01*
Y850170D01*
Y849757D01*
Y849344D01*
Y848930D01*
Y848517D01*
Y848104D01*
Y847691D01*
Y847278D01*
X591880D01*
Y846864D01*
Y846451D01*
X591467D01*
Y846038D01*
Y845625D01*
Y845211D01*
Y844798D01*
X591054D01*
Y844385D01*
Y843972D01*
Y843559D01*
Y843146D01*
Y842732D01*
Y842319D01*
X590640D01*
Y841906D01*
Y841493D01*
Y841079D01*
X590227D01*
Y840666D01*
Y840253D01*
Y839840D01*
Y839427D01*
Y839013D01*
Y838600D01*
Y838187D01*
X589814D01*
Y837774D01*
Y837361D01*
X589401D01*
Y836947D01*
Y836534D01*
Y836121D01*
Y835708D01*
Y835294D01*
Y834881D01*
Y834468D01*
Y834055D01*
X588988D01*
Y833642D01*
Y833229D01*
X588574D01*
Y832815D01*
Y832402D01*
Y831989D01*
Y831576D01*
Y831162D01*
Y830749D01*
Y830336D01*
Y829923D01*
Y829510D01*
X588161D01*
Y829096D01*
X587748D01*
Y828683D01*
Y828270D01*
Y827857D01*
Y827444D01*
Y827030D01*
Y826617D01*
X576591D01*
Y827030D01*
Y827444D01*
Y827857D01*
Y828270D01*
Y828683D01*
Y829096D01*
Y829510D01*
Y829923D01*
X577418D01*
Y830336D01*
Y830749D01*
Y831162D01*
Y831576D01*
Y831989D01*
Y832402D01*
Y832815D01*
Y833229D01*
Y833642D01*
Y834055D01*
Y834468D01*
X578244D01*
Y834881D01*
Y835294D01*
Y835708D01*
Y836121D01*
Y836534D01*
Y836947D01*
Y837361D01*
Y837774D01*
Y838187D01*
Y838600D01*
X579071D01*
Y839013D01*
Y839427D01*
Y839840D01*
Y840253D01*
Y840666D01*
Y841079D01*
Y841493D01*
Y841906D01*
Y842319D01*
X579484D01*
Y842732D01*
Y843146D01*
X579897D01*
Y843559D01*
Y843972D01*
Y844385D01*
Y844798D01*
Y845211D01*
X580310D01*
Y845625D01*
Y846038D01*
Y846451D01*
Y846864D01*
Y847278D01*
X580723D01*
Y847691D01*
Y848104D01*
Y848517D01*
Y848930D01*
X581137D01*
Y849344D01*
Y849757D01*
Y850170D01*
Y850583D01*
Y850996D01*
Y851410D01*
Y851823D01*
X581550D01*
Y852236D01*
Y852649D01*
X581963D01*
Y853062D01*
Y853476D01*
Y853889D01*
Y854302D01*
Y854715D01*
Y855128D01*
Y855542D01*
Y855955D01*
X582376D01*
Y856368D01*
Y856781D01*
X582789D01*
Y857195D01*
Y857608D01*
Y858021D01*
Y858434D01*
Y858847D01*
Y859261D01*
Y859674D01*
Y860087D01*
Y860500D01*
X583203D01*
Y860913D01*
Y861327D01*
X583616D01*
Y861740D01*
Y862153D01*
Y862566D01*
Y862979D01*
Y863393D01*
Y863806D01*
Y864219D01*
Y864632D01*
Y865045D01*
X584442D01*
Y865459D01*
Y865872D01*
Y866285D01*
Y866698D01*
Y867112D01*
Y867525D01*
Y867938D01*
Y868351D01*
Y868764D01*
Y869178D01*
X572046D01*
Y869591D01*
Y870004D01*
Y870417D01*
Y870830D01*
X572459D01*
Y871244D01*
Y871657D01*
X572872D01*
Y872070D01*
Y872483D01*
Y872896D01*
Y873310D01*
X573286D01*
Y873723D01*
Y874136D01*
Y874549D01*
Y874962D01*
Y875376D01*
Y875789D01*
Y876202D01*
X573699D01*
Y876615D01*
Y877029D01*
X574112D01*
Y877442D01*
Y877855D01*
Y878268D01*
Y878681D01*
X610474D01*
Y878268D01*
D02*
G37*
G36*
X805921Y879094D02*
X806748D01*
Y878681D01*
X810054D01*
Y878268D01*
Y877855D01*
X812120D01*
Y877442D01*
Y877029D01*
X813772D01*
Y876615D01*
Y876202D01*
X814599D01*
Y875789D01*
Y875376D01*
X815425D01*
Y874962D01*
Y874549D01*
X816252D01*
Y874136D01*
Y873723D01*
X817078D01*
Y873310D01*
Y872896D01*
Y872483D01*
X817905D01*
Y872070D01*
Y871657D01*
Y871244D01*
X818318D01*
Y870830D01*
X818731D01*
Y870417D01*
Y870004D01*
Y869591D01*
Y869178D01*
X819144D01*
Y868764D01*
Y868351D01*
X819557D01*
Y867938D01*
Y867525D01*
Y867112D01*
Y866698D01*
Y866285D01*
Y865872D01*
Y865459D01*
X819971D01*
Y865045D01*
Y864632D01*
Y864219D01*
Y863806D01*
Y863393D01*
Y862979D01*
X819557D01*
Y862566D01*
Y862153D01*
Y861740D01*
Y861327D01*
Y860913D01*
Y860500D01*
Y860087D01*
Y859674D01*
Y859261D01*
Y858847D01*
Y858434D01*
X819144D01*
Y858021D01*
Y857608D01*
Y857195D01*
Y856781D01*
X818731D01*
Y856368D01*
Y855955D01*
Y855542D01*
Y855128D01*
Y854715D01*
Y854302D01*
Y853889D01*
Y853476D01*
X818318D01*
Y853062D01*
Y852649D01*
X817905D01*
Y852236D01*
Y851823D01*
Y851410D01*
Y850996D01*
Y850583D01*
Y850170D01*
Y849757D01*
Y849344D01*
Y848930D01*
X817078D01*
Y848517D01*
Y848104D01*
Y847691D01*
Y847278D01*
Y846864D01*
Y846451D01*
Y846038D01*
Y845625D01*
X816665D01*
Y845211D01*
Y844798D01*
X816252D01*
Y844385D01*
Y843972D01*
Y843559D01*
Y843146D01*
Y842732D01*
Y842319D01*
Y841906D01*
X815425D01*
Y841493D01*
Y841079D01*
Y840666D01*
Y840253D01*
Y839840D01*
Y839427D01*
X814599D01*
Y839013D01*
Y838600D01*
Y838187D01*
Y837774D01*
X813772D01*
Y837361D01*
Y836947D01*
Y836534D01*
Y836121D01*
X812946D01*
Y835708D01*
Y835294D01*
X812533D01*
Y834881D01*
Y834468D01*
X812120D01*
Y834055D01*
X811706D01*
Y833642D01*
Y833229D01*
X810880D01*
Y832815D01*
Y832402D01*
X810054D01*
Y831989D01*
Y831576D01*
X809227D01*
Y831162D01*
Y830749D01*
X808401D01*
Y830336D01*
Y829923D01*
X806748D01*
Y829510D01*
Y829096D01*
X805508D01*
Y828683D01*
X805095D01*
Y828270D01*
X803855D01*
Y827857D01*
X803029D01*
Y827444D01*
X801376D01*
Y827030D01*
X800550D01*
Y826617D01*
X798071D01*
Y826204D01*
X792699D01*
Y826617D01*
X790220D01*
Y827030D01*
X789393D01*
Y827444D01*
X787740D01*
Y827857D01*
X787327D01*
Y828270D01*
X786088D01*
Y828683D01*
X785674D01*
Y829096D01*
X784848D01*
Y829510D01*
Y829923D01*
X784022D01*
Y830336D01*
Y830749D01*
X783195D01*
Y831162D01*
Y831576D01*
X782369D01*
Y831989D01*
Y832402D01*
X781542D01*
Y832815D01*
Y833229D01*
Y833642D01*
X781129D01*
Y834055D01*
X780716D01*
Y834468D01*
Y834881D01*
Y835294D01*
X780303D01*
Y835708D01*
Y836121D01*
X779889D01*
Y836534D01*
Y836947D01*
Y837361D01*
Y837774D01*
X779476D01*
Y838187D01*
Y838600D01*
Y839013D01*
Y839427D01*
Y839840D01*
Y840253D01*
Y840666D01*
X779063D01*
Y841079D01*
Y841493D01*
Y841906D01*
X779476D01*
Y842319D01*
Y842732D01*
Y843146D01*
Y843559D01*
Y843972D01*
Y844385D01*
Y844798D01*
Y845211D01*
Y845625D01*
X779889D01*
Y846038D01*
Y846451D01*
Y846864D01*
Y847278D01*
Y847691D01*
Y848104D01*
Y848517D01*
Y848930D01*
X780303D01*
Y849344D01*
Y849757D01*
Y850170D01*
X780716D01*
Y850583D01*
Y850996D01*
Y851410D01*
Y851823D01*
Y852236D01*
Y852649D01*
Y853062D01*
Y853476D01*
X781129D01*
Y853889D01*
Y854302D01*
X781542D01*
Y854715D01*
Y855128D01*
Y855542D01*
Y855955D01*
Y856368D01*
Y856781D01*
Y857195D01*
Y857608D01*
X781955D01*
Y858021D01*
X782369D01*
Y858434D01*
Y858847D01*
Y859261D01*
Y859674D01*
Y860087D01*
Y860500D01*
Y860913D01*
Y861327D01*
X783195D01*
Y861740D01*
Y862153D01*
Y862566D01*
Y862979D01*
Y863393D01*
Y863806D01*
Y864219D01*
X783608D01*
Y864632D01*
X784022D01*
Y865045D01*
Y865459D01*
Y865872D01*
Y866285D01*
Y866698D01*
X784848D01*
Y867112D01*
Y867525D01*
Y867938D01*
Y868351D01*
X785674D01*
Y868764D01*
Y869178D01*
Y869591D01*
Y870004D01*
X786501D01*
Y870417D01*
Y870830D01*
X786914D01*
Y871244D01*
X787327D01*
Y871657D01*
X787740D01*
Y872070D01*
Y872483D01*
X788567D01*
Y872896D01*
Y873310D01*
X789393D01*
Y873723D01*
Y874136D01*
X790220D01*
Y874549D01*
Y874962D01*
X791046D01*
Y875376D01*
X791872D01*
Y875789D01*
Y876202D01*
X793112D01*
Y876615D01*
Y877029D01*
X794765D01*
Y877442D01*
X795178D01*
Y877855D01*
X797244D01*
Y878268D01*
Y878681D01*
X801376D01*
Y879094D01*
X801789D01*
Y879508D01*
X805921D01*
Y879094D01*
D02*
G37*
G36*
X725346Y913391D02*
Y912978D01*
X724106D01*
Y912564D01*
Y912151D01*
X722867D01*
Y911738D01*
Y911325D01*
X721627D01*
Y910911D01*
Y910498D01*
X720801D01*
Y910085D01*
X719974D01*
Y909672D01*
X719148D01*
Y909259D01*
Y908846D01*
X718322D01*
Y908432D01*
Y908019D01*
X717495D01*
Y907606D01*
X717082D01*
Y907193D01*
X716669D01*
Y906779D01*
X715842D01*
Y906366D01*
Y905953D01*
X715016D01*
Y905540D01*
Y905127D01*
X713776D01*
Y904713D01*
Y904300D01*
X713363D01*
Y903887D01*
X712950D01*
Y903474D01*
Y903061D01*
X712537D01*
Y902647D01*
X712123D01*
Y902234D01*
Y901821D01*
X711297D01*
Y901408D01*
Y900994D01*
X710471D01*
Y900581D01*
Y900168D01*
X710057D01*
Y899755D01*
X709644D01*
Y899342D01*
Y898929D01*
X709231D01*
Y898515D01*
Y898102D01*
X708404D01*
Y897689D01*
Y897276D01*
X707578D01*
Y896862D01*
Y896449D01*
Y896036D01*
Y895623D01*
X706752D01*
Y895210D01*
Y894796D01*
Y894383D01*
X706339D01*
Y893970D01*
X705925D01*
Y893557D01*
Y893144D01*
Y892730D01*
X705099D01*
Y892317D01*
Y891904D01*
Y891491D01*
Y891077D01*
X704272D01*
Y890664D01*
Y890251D01*
X705099D01*
Y889838D01*
Y889425D01*
X706339D01*
Y889012D01*
X708818D01*
Y888598D01*
X712950D01*
Y888185D01*
X714603D01*
Y887772D01*
X716255D01*
Y888185D01*
X716669D01*
Y887772D01*
Y887359D01*
X718322D01*
Y886945D01*
X719561D01*
Y887359D01*
X719974D01*
Y886945D01*
Y886532D01*
X722040D01*
Y886119D01*
X722454D01*
Y885706D01*
X723693D01*
Y885293D01*
X724106D01*
Y885706D01*
X724520D01*
Y885293D01*
Y884879D01*
X725346D01*
Y884466D01*
Y884053D01*
X727412D01*
Y883640D01*
Y883227D01*
X728652D01*
Y882813D01*
X729478D01*
Y882400D01*
X729891D01*
Y881987D01*
X730304D01*
Y881574D01*
X730718D01*
Y881161D01*
X731544D01*
Y880747D01*
X731957D01*
Y880334D01*
X732371D01*
Y879921D01*
X733197D01*
Y879508D01*
X734023D01*
Y879094D01*
Y878681D01*
Y878268D01*
X734850D01*
Y877855D01*
Y877442D01*
Y877029D01*
X735676D01*
Y876615D01*
Y876202D01*
X736503D01*
Y875789D01*
Y875376D01*
Y874962D01*
X736916D01*
Y874549D01*
X737329D01*
Y874136D01*
Y873723D01*
Y873310D01*
X737742D01*
Y872896D01*
X738155D01*
Y872483D01*
Y872070D01*
Y871657D01*
X738569D01*
Y871244D01*
Y870830D01*
X738982D01*
Y870417D01*
Y870004D01*
X739395D01*
Y869591D01*
Y869178D01*
Y868764D01*
Y868351D01*
X740221D01*
Y867938D01*
Y867525D01*
Y867112D01*
Y866698D01*
Y866285D01*
Y865872D01*
Y865459D01*
Y865045D01*
Y864632D01*
Y864219D01*
Y863806D01*
Y863393D01*
Y862979D01*
Y862566D01*
Y862153D01*
Y861740D01*
Y861327D01*
Y860913D01*
Y860500D01*
Y860087D01*
Y859674D01*
Y859261D01*
X739808D01*
Y858847D01*
Y858434D01*
X739395D01*
Y858021D01*
Y857608D01*
Y857195D01*
Y856781D01*
Y856368D01*
Y855955D01*
X738982D01*
Y855542D01*
Y855128D01*
Y854715D01*
Y854302D01*
Y853889D01*
Y853476D01*
X738569D01*
Y853062D01*
Y852649D01*
X738155D01*
Y852236D01*
Y851823D01*
Y851410D01*
Y850996D01*
Y850583D01*
Y850170D01*
Y849757D01*
Y849344D01*
Y848930D01*
X737742D01*
Y848517D01*
X737329D01*
Y848104D01*
Y847691D01*
Y847278D01*
Y846864D01*
Y846451D01*
Y846038D01*
Y845625D01*
X736916D01*
Y845211D01*
Y844798D01*
X736503D01*
Y844385D01*
Y843972D01*
Y843559D01*
Y843146D01*
Y842732D01*
Y842319D01*
X736089D01*
Y841906D01*
X735676D01*
Y841493D01*
Y841079D01*
Y840666D01*
Y840253D01*
Y839840D01*
Y839427D01*
X734850D01*
Y839013D01*
Y838600D01*
Y838187D01*
Y837774D01*
X734023D01*
Y837361D01*
Y836947D01*
Y836534D01*
Y836121D01*
X733197D01*
Y835708D01*
Y835294D01*
Y834881D01*
X732784D01*
Y834468D01*
X732371D01*
Y834055D01*
X731957D01*
Y833642D01*
Y833229D01*
X731131D01*
Y832815D01*
Y832402D01*
X730304D01*
Y831989D01*
Y831576D01*
X729478D01*
Y831162D01*
Y830749D01*
X728652D01*
Y830336D01*
Y829923D01*
X726999D01*
Y829510D01*
Y829096D01*
X725346D01*
Y828683D01*
Y828270D01*
X723693D01*
Y827857D01*
X723280D01*
Y827444D01*
X721214D01*
Y827030D01*
X720801D01*
Y826617D01*
X716255D01*
Y826204D01*
X715016D01*
Y826617D01*
X710471D01*
Y827030D01*
Y827444D01*
X707991D01*
Y827857D01*
Y828270D01*
X706339D01*
Y828683D01*
Y829096D01*
X705099D01*
Y829510D01*
Y829923D01*
X704272D01*
Y830336D01*
Y830749D01*
X703446D01*
Y831162D01*
Y831576D01*
X702620D01*
Y831989D01*
Y832402D01*
X702206D01*
Y832815D01*
Y833229D01*
X701793D01*
Y833642D01*
Y834055D01*
X700967D01*
Y834468D01*
Y834881D01*
Y835294D01*
Y835708D01*
X700554D01*
Y836121D01*
Y836534D01*
Y836947D01*
Y837361D01*
X700140D01*
Y837774D01*
Y838187D01*
Y838600D01*
Y839013D01*
Y839427D01*
X699727D01*
Y839840D01*
Y840253D01*
Y840666D01*
Y841079D01*
Y841493D01*
Y841906D01*
Y842319D01*
Y842732D01*
Y843146D01*
X700140D01*
Y843559D01*
Y843972D01*
Y844385D01*
Y844798D01*
Y845211D01*
Y845625D01*
Y846038D01*
Y846451D01*
X700554D01*
Y846864D01*
Y847278D01*
Y847691D01*
Y848104D01*
Y848517D01*
Y848930D01*
Y849344D01*
X700967D01*
Y849757D01*
Y850170D01*
Y850583D01*
Y850996D01*
Y851410D01*
X701380D01*
Y851823D01*
Y852236D01*
Y852649D01*
X701793D01*
Y853062D01*
Y853476D01*
X701380D01*
Y853889D01*
Y854302D01*
X701793D01*
Y854715D01*
Y855128D01*
Y855542D01*
Y855955D01*
X702620D01*
Y856368D01*
Y856781D01*
Y857195D01*
Y857608D01*
Y858021D01*
Y858434D01*
Y858847D01*
Y859261D01*
Y859674D01*
X703446D01*
Y860087D01*
Y860500D01*
Y860913D01*
Y861327D01*
Y861740D01*
Y862153D01*
Y862566D01*
Y862979D01*
X704272D01*
Y863393D01*
Y863806D01*
Y864219D01*
Y864632D01*
Y865045D01*
Y865459D01*
X705099D01*
Y865872D01*
Y866285D01*
Y866698D01*
Y867112D01*
Y867525D01*
X705925D01*
Y867938D01*
Y868351D01*
Y868764D01*
Y869178D01*
X706752D01*
Y869591D01*
Y870004D01*
X707165D01*
Y870417D01*
X707578D01*
Y870830D01*
Y871244D01*
X707991D01*
Y871657D01*
X708404D01*
Y872070D01*
X708818D01*
Y872483D01*
X709231D01*
Y872896D01*
X709644D01*
Y873310D01*
Y873723D01*
X710471D01*
Y874136D01*
Y874549D01*
X711710D01*
Y874962D01*
X712123D01*
Y875376D01*
X712950D01*
Y875789D01*
Y876202D01*
X714603D01*
Y876615D01*
Y877029D01*
X716669D01*
Y877442D01*
Y877855D01*
X718322D01*
Y878268D01*
Y878681D01*
Y879094D01*
X719148D01*
Y879508D01*
X718322D01*
Y879921D01*
Y880334D01*
X717495D01*
Y880747D01*
X716669D01*
Y881161D01*
X716255D01*
Y881574D01*
X714189D01*
Y881987D01*
Y882400D01*
X712123D01*
Y882813D01*
Y883227D01*
X708818D01*
Y883640D01*
Y884053D01*
X695595D01*
Y883640D01*
Y883227D01*
X694769D01*
Y883640D01*
Y884053D01*
Y884466D01*
Y884879D01*
X695595D01*
Y885293D01*
Y885706D01*
Y886119D01*
Y886532D01*
X696422D01*
Y886945D01*
Y887359D01*
Y887772D01*
X697248D01*
Y888185D01*
Y888598D01*
Y889012D01*
Y889425D01*
X698074D01*
Y889838D01*
Y890251D01*
X698901D01*
Y890664D01*
Y891077D01*
Y891491D01*
Y891904D01*
X699727D01*
Y892317D01*
Y892730D01*
X700554D01*
Y893144D01*
Y893557D01*
X700967D01*
Y893970D01*
Y894383D01*
X701793D01*
Y894796D01*
Y895210D01*
Y895623D01*
X702620D01*
Y896036D01*
Y896449D01*
X703446D01*
Y896862D01*
Y897276D01*
X704272D01*
Y897689D01*
Y898102D01*
Y898515D01*
Y898929D01*
X705099D01*
Y899342D01*
Y899755D01*
X705925D01*
Y900168D01*
Y900581D01*
X706752D01*
Y900994D01*
X707165D01*
Y901408D01*
X707578D01*
Y901821D01*
X707991D01*
Y902234D01*
X708404D01*
Y902647D01*
X708818D01*
Y903061D01*
Y903474D01*
X709644D01*
Y903887D01*
Y904300D01*
X710471D01*
Y904713D01*
Y905127D01*
X711297D01*
Y905540D01*
Y905953D01*
X712950D01*
Y906366D01*
Y906779D01*
X713776D01*
Y907193D01*
Y907606D01*
X714603D01*
Y908019D01*
X715016D01*
Y908432D01*
X715842D01*
Y908846D01*
X716255D01*
Y909259D01*
X716669D01*
Y909672D01*
X717495D01*
Y910085D01*
Y910498D01*
X719148D01*
Y910911D01*
Y911325D01*
X719974D01*
Y911738D01*
Y912151D01*
X721627D01*
Y912564D01*
Y912978D01*
X723693D01*
Y913391D01*
Y913804D01*
X725346D01*
Y913391D01*
D02*
G37*
%LPC*%
G36*
X805095Y869178D02*
X799723D01*
Y868764D01*
Y868351D01*
X798071D01*
Y867938D01*
Y867525D01*
X797244D01*
Y867112D01*
Y866698D01*
X796418D01*
Y866285D01*
X796004D01*
Y865872D01*
Y865459D01*
Y865045D01*
X795178D01*
Y864632D01*
Y864219D01*
Y863806D01*
Y863393D01*
Y862979D01*
X794352D01*
Y862566D01*
Y862153D01*
Y861740D01*
Y861327D01*
Y860913D01*
Y860500D01*
X793525D01*
Y860087D01*
Y859674D01*
Y859261D01*
Y858847D01*
Y858434D01*
Y858021D01*
Y857608D01*
Y857195D01*
X792699D01*
Y856781D01*
Y856368D01*
Y855955D01*
Y855542D01*
Y855128D01*
Y854715D01*
Y854302D01*
Y853889D01*
Y853476D01*
Y853062D01*
X791872D01*
Y852649D01*
Y852236D01*
Y851823D01*
Y851410D01*
Y850996D01*
Y850583D01*
Y850170D01*
Y849757D01*
Y849344D01*
Y848930D01*
X791459D01*
Y848517D01*
Y848104D01*
X791046D01*
Y847691D01*
Y847278D01*
Y846864D01*
Y846451D01*
Y846038D01*
Y845625D01*
Y845211D01*
Y844798D01*
Y844385D01*
Y843972D01*
X790633D01*
Y843559D01*
Y843146D01*
Y842732D01*
Y842319D01*
Y841906D01*
Y841493D01*
Y841079D01*
X791046D01*
Y840666D01*
Y840253D01*
Y839840D01*
Y839427D01*
X791872D01*
Y839013D01*
Y838600D01*
Y838187D01*
Y837774D01*
X792699D01*
Y837361D01*
X793525D01*
Y836947D01*
Y836534D01*
X795178D01*
Y836121D01*
X795591D01*
Y835708D01*
X797244D01*
Y836121D01*
X798071D01*
Y836534D01*
X799723D01*
Y836947D01*
X800550D01*
Y837361D01*
X800963D01*
Y837774D01*
X801376D01*
Y838187D01*
X801789D01*
Y838600D01*
X802616D01*
Y839013D01*
Y839427D01*
X803442D01*
Y839840D01*
Y840253D01*
Y840666D01*
Y841079D01*
X804269D01*
Y841493D01*
Y841906D01*
Y842319D01*
Y842732D01*
Y843146D01*
X805095D01*
Y843559D01*
Y843972D01*
Y844385D01*
Y844798D01*
Y845211D01*
Y845625D01*
Y846038D01*
Y846451D01*
X805921D01*
Y846864D01*
Y847278D01*
Y847691D01*
Y848104D01*
Y848517D01*
Y848930D01*
Y849344D01*
Y849757D01*
X806748D01*
Y850170D01*
Y850583D01*
Y850996D01*
Y851410D01*
Y851823D01*
Y852236D01*
Y852649D01*
Y853062D01*
Y853476D01*
Y853889D01*
Y854302D01*
X807574D01*
Y854715D01*
Y855128D01*
Y855542D01*
Y855955D01*
Y856368D01*
Y856781D01*
Y857195D01*
Y857608D01*
Y858021D01*
Y858434D01*
X807988D01*
Y858847D01*
Y859261D01*
X808401D01*
Y859674D01*
Y860087D01*
Y860500D01*
Y860913D01*
Y861327D01*
Y861740D01*
Y862153D01*
Y862566D01*
Y862979D01*
Y863393D01*
Y863806D01*
Y864219D01*
Y864632D01*
Y865045D01*
Y865459D01*
X807988D01*
Y865872D01*
X807574D01*
Y866285D01*
Y866698D01*
Y867112D01*
Y867525D01*
X806748D01*
Y867938D01*
Y868351D01*
X805095D01*
Y868764D01*
Y869178D01*
D02*
G37*
G36*
X725346D02*
X719974D01*
Y868764D01*
Y868351D01*
X718322D01*
Y867938D01*
Y867525D01*
X717495D01*
Y867112D01*
Y866698D01*
X716669D01*
Y866285D01*
Y865872D01*
X716255D01*
Y865459D01*
Y865045D01*
X715429D01*
Y864632D01*
Y864219D01*
Y863806D01*
Y863393D01*
X715016D01*
Y862979D01*
X714603D01*
Y862566D01*
Y862153D01*
Y861740D01*
Y861327D01*
Y860913D01*
Y860500D01*
X713776D01*
Y860087D01*
Y859674D01*
Y859261D01*
Y858847D01*
Y858434D01*
Y858021D01*
Y857608D01*
Y857195D01*
X713363D01*
Y856781D01*
X712950D01*
Y856368D01*
Y855955D01*
Y855542D01*
Y855128D01*
Y854715D01*
Y854302D01*
Y853889D01*
Y853476D01*
X712537D01*
Y853062D01*
X712123D01*
Y852649D01*
Y852236D01*
Y851823D01*
Y851410D01*
Y850996D01*
Y850583D01*
Y850170D01*
Y849757D01*
Y849344D01*
Y848930D01*
Y848517D01*
Y848104D01*
X711297D01*
Y847691D01*
Y847278D01*
Y846864D01*
Y846451D01*
Y846038D01*
Y845625D01*
Y845211D01*
Y844798D01*
Y844385D01*
Y843972D01*
Y843559D01*
Y843146D01*
Y842732D01*
Y842319D01*
Y841906D01*
Y841493D01*
Y841079D01*
Y840666D01*
Y840253D01*
Y839840D01*
Y839427D01*
X712123D01*
Y839013D01*
Y838600D01*
Y838187D01*
Y837774D01*
X712950D01*
Y837361D01*
X713363D01*
Y836947D01*
X713776D01*
Y836534D01*
X715016D01*
Y836121D01*
X715842D01*
Y835708D01*
X718322D01*
Y836121D01*
X719974D01*
Y836534D01*
X720388D01*
Y836947D01*
X721627D01*
Y837361D01*
Y837774D01*
X722454D01*
Y838187D01*
Y838600D01*
X723280D01*
Y839013D01*
Y839427D01*
X723693D01*
Y839840D01*
Y840253D01*
X724520D01*
Y840666D01*
Y841079D01*
Y841493D01*
X724933D01*
Y841906D01*
X725346D01*
Y842319D01*
Y842732D01*
Y843146D01*
Y843559D01*
Y843972D01*
X726172D01*
Y844385D01*
Y844798D01*
Y845211D01*
Y845625D01*
Y846038D01*
Y846451D01*
Y846864D01*
Y847278D01*
X726999D01*
Y847691D01*
Y848104D01*
Y848517D01*
Y848930D01*
Y849344D01*
Y849757D01*
Y850170D01*
Y850583D01*
Y850996D01*
Y851410D01*
Y851823D01*
X727825D01*
Y852236D01*
Y852649D01*
Y853062D01*
Y853476D01*
Y853889D01*
Y854302D01*
Y854715D01*
Y855128D01*
X728238D01*
Y855542D01*
Y855955D01*
X728652D01*
Y856368D01*
Y856781D01*
Y857195D01*
Y857608D01*
Y858021D01*
Y858434D01*
Y858847D01*
Y859261D01*
Y859674D01*
Y860087D01*
Y860500D01*
X729065D01*
Y860913D01*
Y861327D01*
Y861740D01*
Y862153D01*
Y862566D01*
Y862979D01*
Y863393D01*
Y863806D01*
Y864219D01*
Y864632D01*
X728652D01*
Y865045D01*
Y865459D01*
X728238D01*
Y865872D01*
Y866285D01*
Y866698D01*
X727825D01*
Y867112D01*
Y867525D01*
X726999D01*
Y867938D01*
Y868351D01*
X725346D01*
Y868764D01*
Y869178D01*
D02*
G37*
%LPD*%
D10*
X466990Y613520D02*
G03*
X466990Y613520I-1250J0D01*
G01*
X854990Y501700D02*
G03*
X854990Y501700I-1250J0D01*
G01*
D11*
X908060Y543760D02*
G03*
X908060Y543760I-500J0D01*
G01*
X97300Y200200D02*
G03*
X97300Y201200I0J500D01*
G01*
D02*
G03*
X97300Y200200I0J-500D01*
G01*
X94950Y723500D02*
G03*
X94950Y724500I0J500D01*
G01*
D02*
G03*
X94950Y723500I0J-500D01*
G01*
X856705Y226310D02*
G03*
X856705Y225320I0J-495D01*
G01*
D02*
G03*
X856705Y226310I0J495D01*
G01*
X838370Y601520D02*
X891370D01*
X838370Y651520D02*
X891370D01*
X362310Y733450D02*
X407310D01*
X362310Y688450D02*
Y733450D01*
Y688450D02*
X407310D01*
Y733450D01*
D12*
X401810Y759950D02*
G03*
X399810Y759950I-1000J0D01*
G01*
D02*
G03*
X401810Y759950I1000J0D01*
G01*
X563750Y522030D02*
X570230Y528510D01*
X476250Y528510D02*
X482730Y522030D01*
X563750Y616010D02*
X570230Y609530D01*
X476250Y609530D02*
X482730Y616010D01*
X482730Y522030D02*
X563750D01*
X482730Y616010D02*
X563750D01*
X570230Y528510D02*
Y609530D01*
X476250Y528510D02*
Y609530D01*
X860040Y328810D02*
Y426110D01*
X910340Y328810D02*
Y426110D01*
X780600Y211480D02*
X781500D01*
X780600Y222980D02*
X781500D01*
X892360Y535400D02*
X893260D01*
X892360Y523900D02*
X893260D01*
X719578Y543287D02*
X720478D01*
X719578Y531787D02*
X720478D01*
X694820Y500020D02*
X733820D01*
X694820D02*
Y522520D01*
X733820D01*
X509090Y834580D02*
Y873580D01*
X486590Y834580D02*
X509090D01*
X486590D02*
Y873580D01*
X586080Y-12310D02*
Y35540D01*
X756679Y200390D02*
X897280D01*
X586080Y65540D02*
Y200390D01*
Y-12310D02*
X897280D01*
X586080Y200390D02*
X726680D01*
X897280Y65540D02*
Y200390D01*
Y-12310D02*
Y35540D01*
X317250Y48320D02*
Y243820D01*
X292250D02*
X317250D01*
X292250Y33120D02*
Y243820D01*
Y33120D02*
X304750D01*
X964395Y763340D02*
Y840340D01*
X871895Y770840D02*
Y780340D01*
X949895Y763340D02*
X964395D01*
X894895D02*
X918895D01*
X894895Y840340D02*
X918895D01*
X949895D02*
X964395D01*
X871895Y823340D02*
Y832840D01*
X248880Y333000D02*
Y345500D01*
X38180Y333000D02*
X248880D01*
X38180D02*
Y358000D01*
X233680D01*
X-7900Y284450D02*
X91100D01*
X-7900Y177950D02*
Y284450D01*
Y177950D02*
X91100D01*
Y284450D01*
X-10250Y807750D02*
X88750D01*
X-10250Y701250D02*
Y807750D01*
Y701250D02*
X88750D01*
Y807750D01*
X906700Y252320D02*
Y288320D01*
X676700Y305320D02*
X886700D01*
X656700Y252320D02*
Y288320D01*
X676700Y235320D02*
X886700D01*
X835700Y305320D02*
Y390320D01*
X777700D02*
X835700D01*
X777700Y305320D02*
Y390320D01*
Y305320D02*
X835700D01*
X520900Y33120D02*
X533400D01*
X520900D02*
Y243820D01*
X545900D01*
Y48320D02*
Y243820D01*
X853750Y346750D02*
Y347750D01*
X841750Y346750D02*
Y347750D01*
X734460Y451450D02*
Y470700D01*
X606560Y447950D02*
X734560D01*
X606560Y379950D02*
Y447950D01*
Y379950D02*
X734560D01*
Y447950D01*
X527720Y719500D02*
Y720400D01*
X516220Y719500D02*
Y720400D01*
X852990Y545770D02*
X853890D01*
X852990Y557270D02*
X853890D01*
X880930Y446430D02*
X881830D01*
X880930Y457930D02*
X881830D01*
X758540Y358970D02*
Y359970D01*
X770540Y358970D02*
Y359970D01*
X866650Y672790D02*
X898650D01*
X866650D02*
Y721790D01*
X898650D01*
Y672790D02*
Y721790D01*
X902150Y671490D02*
X917400D01*
X457200Y682050D02*
Y758250D01*
X431800D02*
X457200D01*
X431800Y682050D02*
Y758250D01*
Y682050D02*
X457200D01*
X684530Y765870D02*
Y791270D01*
X532130Y765870D02*
Y791270D01*
X684530D01*
X532130Y765870D02*
X684530D01*
X761610Y534730D02*
X812410D01*
X761610Y737930D02*
X812410D01*
X761610Y534730D02*
Y737930D01*
X812410Y534730D02*
Y737930D01*
X460970Y849720D02*
Y867470D01*
X301070Y849720D02*
X460970D01*
X301070D02*
Y882595D01*
X445770D01*
X289559Y710871D02*
Y808171D01*
X339859Y710871D02*
Y808171D01*
X243750Y436550D02*
Y632050D01*
Y436550D02*
X268750D01*
Y647250D01*
X256250D02*
X268750D01*
X211901Y470849D02*
Y568149D01*
X161601Y470849D02*
Y568149D01*
X15000Y436550D02*
Y632050D01*
Y436550D02*
X40000D01*
Y647250D01*
X27500D02*
X40000D01*
X87849Y473351D02*
Y570651D01*
X138149Y473351D02*
Y570651D01*
X534070Y853050D02*
Y853950D01*
X522570Y853050D02*
Y853950D01*
X440330Y129209D02*
Y226509D01*
X390030Y129209D02*
Y226509D01*
X38180Y129400D02*
X233680D01*
X38180Y104400D02*
Y129400D01*
Y104400D02*
X248880D01*
Y116900D01*
X149260Y233990D02*
X246560D01*
X149260Y284290D02*
X246560D01*
D13*
X794630Y743966D02*
Y750630D01*
X801294Y743966D01*
X802961D01*
X804627Y745632D01*
Y748964D01*
X802961Y750630D01*
X769230D02*
Y747298D01*
Y748964D01*
X779227D01*
X777561Y750630D01*
X768452Y529500D02*
Y526168D01*
Y527834D01*
X778449D01*
X776783Y529500D01*
X778449Y514505D02*
Y521169D01*
X773451D01*
X775117Y517837D01*
Y516171D01*
X773451Y514505D01*
X770118D01*
X768452Y516171D01*
Y519503D01*
X770118Y521169D01*
X796250Y529650D02*
Y526318D01*
Y527984D01*
X806247D01*
X804581Y529650D01*
X806247Y514655D02*
X804581Y517987D01*
X801248Y521319D01*
X797916D01*
X796250Y519653D01*
Y516321D01*
X797916Y514655D01*
X799582D01*
X801248Y516321D01*
Y521319D01*
D14*
X821810Y665439D02*
Y655443D01*
X828475D01*
X831807D02*
X835139D01*
X833473D01*
Y665439D01*
X831807Y663773D01*
X472603Y834450D02*
X482600D01*
Y841115D01*
X472603Y851111D02*
Y844447D01*
X482600D01*
Y851111D01*
X477602Y844447D02*
Y847779D01*
X472603Y854444D02*
X482600D01*
Y859442D01*
X480934Y861108D01*
X474269D01*
X472603Y859442D01*
Y854444D01*
X482600Y871105D02*
Y864440D01*
X475936Y871105D01*
X474269D01*
X472603Y869439D01*
Y866106D01*
X474269Y864440D01*
X584635Y228497D02*
X577970D01*
Y218500D01*
X584635D01*
X577970Y223498D02*
X581302D01*
X587967Y218500D02*
X591299D01*
X589633D01*
Y228497D01*
X587967Y226831D01*
X332919Y42664D02*
X331253Y40998D01*
Y37666D01*
X332919Y36000D01*
X334585D01*
X336252Y37666D01*
Y40998D01*
X337918Y42664D01*
X339584D01*
X341250Y40998D01*
Y37666D01*
X339584Y36000D01*
X331253Y45997D02*
X341250D01*
Y50995D01*
X339584Y52661D01*
X332919D01*
X331253Y50995D01*
Y45997D01*
X341250Y62658D02*
Y55994D01*
X334585Y62658D01*
X332919D01*
X331253Y60992D01*
Y57660D01*
X332919Y55994D01*
X868426Y874419D02*
Y866088D01*
X870092Y864422D01*
X873424D01*
X875090Y866088D01*
Y874419D01*
X885087Y872753D02*
X883421Y874419D01*
X880089D01*
X878423Y872753D01*
Y871087D01*
X880089Y869420D01*
X883421D01*
X885087Y867754D01*
Y866088D01*
X883421Y864422D01*
X880089D01*
X878423Y866088D01*
X888420Y874419D02*
Y864422D01*
X893418D01*
X895084Y866088D01*
Y867754D01*
X893418Y869420D01*
X888420D01*
X893418D01*
X895084Y871087D01*
Y872753D01*
X893418Y874419D01*
X888420D01*
X898416Y864422D02*
X901749D01*
X900082D01*
Y874419D01*
X898416Y872753D01*
X11934Y828871D02*
X10268Y830537D01*
X6936D01*
X5270Y828871D01*
Y827205D01*
X6936Y825538D01*
X10268D01*
X11934Y823872D01*
Y822206D01*
X10268Y820540D01*
X6936D01*
X5270Y822206D01*
X15267Y830537D02*
Y822206D01*
X16933Y820540D01*
X20265D01*
X21931Y822206D01*
Y830537D01*
X31928Y828871D02*
X30262Y830537D01*
X26930D01*
X25264Y828871D01*
Y827205D01*
X26930Y825538D01*
X30262D01*
X31928Y823872D01*
Y822206D01*
X30262Y820540D01*
X26930D01*
X25264Y822206D01*
X35260Y820540D02*
Y830537D01*
X40259D01*
X41925Y828871D01*
Y825538D01*
X40259Y823872D01*
X35260D01*
X51922Y820540D02*
X45257D01*
X51922Y827205D01*
Y828871D01*
X50255Y830537D01*
X46923D01*
X45257Y828871D01*
X16825Y308111D02*
X15158Y309777D01*
X11826D01*
X10160Y308111D01*
Y306444D01*
X11826Y304778D01*
X15158D01*
X16825Y303112D01*
Y301446D01*
X15158Y299780D01*
X11826D01*
X10160Y301446D01*
X20157Y309777D02*
Y301446D01*
X21823Y299780D01*
X25155D01*
X26821Y301446D01*
Y309777D01*
X36818Y308111D02*
X35152Y309777D01*
X31820D01*
X30154Y308111D01*
Y306444D01*
X31820Y304778D01*
X35152D01*
X36818Y303112D01*
Y301446D01*
X35152Y299780D01*
X31820D01*
X30154Y301446D01*
X40150Y299780D02*
Y309777D01*
X45149D01*
X46815Y308111D01*
Y304778D01*
X45149Y303112D01*
X40150D01*
X50147Y299780D02*
X53479D01*
X51813D01*
Y309777D01*
X50147Y308111D01*
X504749Y48635D02*
X503083Y46968D01*
Y43636D01*
X504749Y41970D01*
X506415D01*
X508082Y43636D01*
Y46968D01*
X509748Y48635D01*
X511414D01*
X513080Y46968D01*
Y43636D01*
X511414Y41970D01*
X503083Y51967D02*
X513080D01*
Y56965D01*
X511414Y58631D01*
X504749D01*
X503083Y56965D01*
Y51967D01*
X513080Y61964D02*
Y65296D01*
Y63630D01*
X503083D01*
X504749Y61964D01*
X927591Y294135D02*
X929257Y295802D01*
Y299134D01*
X927591Y300800D01*
X925925D01*
X924258Y299134D01*
Y295802D01*
X922592Y294135D01*
X920926D01*
X919260Y295802D01*
Y299134D01*
X920926Y300800D01*
X919260Y290803D02*
Y287471D01*
Y289137D01*
X929257D01*
X927591Y290803D01*
X359410Y773998D02*
Y783995D01*
X364408D01*
X366074Y782329D01*
Y778996D01*
X364408Y777330D01*
X359410D01*
X362742D02*
X366074Y773998D01*
X376071Y782329D02*
X374405Y783995D01*
X371073D01*
X369407Y782329D01*
Y780663D01*
X371073Y778996D01*
X374405D01*
X376071Y777330D01*
Y775664D01*
X374405Y773998D01*
X371073D01*
X369407Y775664D01*
X379404Y783995D02*
X386068D01*
X382736D01*
Y773998D01*
X389400D02*
X392733D01*
X391067D01*
Y783995D01*
X389400Y782329D01*
X906780Y442020D02*
Y452017D01*
X911778D01*
X913445Y450351D01*
Y447018D01*
X911778Y445352D01*
X906780D01*
X910112D02*
X913445Y442020D01*
X916777Y450351D02*
X918443Y452017D01*
X921775D01*
X923441Y450351D01*
Y448685D01*
X921775Y447018D01*
X923441Y445352D01*
Y443686D01*
X921775Y442020D01*
X918443D01*
X916777Y443686D01*
Y445352D01*
X918443Y447018D01*
X916777Y448685D01*
Y450351D01*
X918443Y447018D02*
X921775D01*
X913890Y520760D02*
Y530757D01*
X918888D01*
X920555Y529091D01*
Y525758D01*
X918888Y524092D01*
X913890D01*
X917222D02*
X920555Y520760D01*
X923887Y530757D02*
X930551D01*
Y529091D01*
X923887Y522426D01*
Y520760D01*
X496348Y737500D02*
Y747497D01*
X501347D01*
X503013Y745831D01*
Y742498D01*
X501347Y740832D01*
X496348D01*
X499681D02*
X503013Y737500D01*
X513010Y747497D02*
X506345D01*
Y742498D01*
X509677Y744165D01*
X511343D01*
X513010Y742498D01*
Y739166D01*
X511343Y737500D01*
X508011D01*
X506345Y739166D01*
X521208Y877884D02*
Y887881D01*
X526206D01*
X527873Y886215D01*
Y882882D01*
X526206Y881216D01*
X521208D01*
X524540D02*
X527873Y877884D01*
X536203D02*
Y887881D01*
X531205Y882882D01*
X537869D01*
X842010Y526120D02*
Y536117D01*
X847008D01*
X848674Y534451D01*
Y531118D01*
X847008Y529452D01*
X842010D01*
X845342D02*
X848674Y526120D01*
X852007Y534451D02*
X853673Y536117D01*
X857005D01*
X858671Y534451D01*
Y532785D01*
X857005Y531118D01*
X855339D01*
X857005D01*
X858671Y529452D01*
Y527786D01*
X857005Y526120D01*
X853673D01*
X852007Y527786D01*
X705528Y550237D02*
Y560233D01*
X710526D01*
X712193Y558567D01*
Y555235D01*
X710526Y553569D01*
X705528D01*
X708860D02*
X712193Y550237D01*
X722189D02*
X715525D01*
X722189Y556901D01*
Y558567D01*
X720523Y560233D01*
X717191D01*
X715525Y558567D01*
X809460Y209610D02*
Y219607D01*
X814458D01*
X816124Y217941D01*
Y214608D01*
X814458Y212942D01*
X809460D01*
X812792D02*
X816124Y209610D01*
X819457D02*
X822789D01*
X821123D01*
Y219607D01*
X819457Y217941D01*
X763270Y760282D02*
Y770279D01*
X768268D01*
X769934Y768613D01*
Y765280D01*
X768268Y763614D01*
X763270D01*
X773267Y768613D02*
X774933Y770279D01*
X778265D01*
X779931Y768613D01*
Y766946D01*
X778265Y765280D01*
X776599D01*
X778265D01*
X779931Y763614D01*
Y761948D01*
X778265Y760282D01*
X774933D01*
X773267Y761948D01*
X433324Y766886D02*
Y776883D01*
X438322D01*
X439989Y775217D01*
Y771884D01*
X438322Y770218D01*
X433324D01*
X449985Y766886D02*
X443321D01*
X449985Y773550D01*
Y775217D01*
X448319Y776883D01*
X444987D01*
X443321Y775217D01*
X533654Y799906D02*
Y809903D01*
X538652D01*
X540318Y808237D01*
Y804904D01*
X538652Y803238D01*
X533654D01*
X543651Y799906D02*
X546983D01*
X545317D01*
Y809903D01*
X543651Y808237D01*
X694690Y491387D02*
Y481390D01*
X701355D01*
X711351Y491387D02*
X704687D01*
Y481390D01*
X711351D01*
X704687Y486388D02*
X708019D01*
X714684Y491387D02*
Y481390D01*
X719682D01*
X721348Y483056D01*
Y489721D01*
X719682Y491387D01*
X714684D01*
X724680Y481390D02*
X728013D01*
X726347D01*
Y491387D01*
X724680Y489721D01*
X37846Y149757D02*
X41178D01*
X39512D01*
Y139760D01*
X37846D01*
X41178D01*
X46177D02*
Y149757D01*
X49509Y146425D01*
X52841Y149757D01*
Y139760D01*
X56173Y149757D02*
Y141426D01*
X57840Y139760D01*
X61172D01*
X62838Y141426D01*
Y149757D01*
X72835Y139760D02*
X66170D01*
X72835Y146425D01*
Y148091D01*
X71169Y149757D01*
X67836D01*
X66170Y148091D01*
X41910Y373277D02*
X45242D01*
X43576D01*
Y363280D01*
X41910D01*
X45242D01*
X50241D02*
Y373277D01*
X53573Y369944D01*
X56905Y373277D01*
Y363280D01*
X60237Y373277D02*
Y364946D01*
X61904Y363280D01*
X65236D01*
X66902Y364946D01*
Y373277D01*
X70234Y363280D02*
X73566D01*
X71900D01*
Y373277D01*
X70234Y371611D01*
X847090Y518057D02*
X850422D01*
X848756D01*
Y508060D01*
X847090D01*
X850422D01*
X862085Y516391D02*
X860419Y518057D01*
X857087D01*
X855421Y516391D01*
Y509726D01*
X857087Y508060D01*
X860419D01*
X862085Y509726D01*
X870416Y508060D02*
Y518057D01*
X865417Y513058D01*
X872082D01*
X461000Y636500D02*
Y646497D01*
X464332Y643165D01*
X467664Y646497D01*
Y636500D01*
X477661Y644831D02*
X475995Y646497D01*
X472663D01*
X470997Y644831D01*
Y638166D01*
X472663Y636500D01*
X475995D01*
X477661Y638166D01*
X480994Y646497D02*
Y638166D01*
X482660Y636500D01*
X485992D01*
X487658Y638166D01*
Y646497D01*
X847598Y742593D02*
X850930D01*
X849264D01*
Y732596D01*
X847598D01*
X850930D01*
X862593Y740927D02*
X860927Y742593D01*
X857595D01*
X855929Y740927D01*
Y734262D01*
X857595Y732596D01*
X860927D01*
X862593Y734262D01*
X872590Y732596D02*
X865925D01*
X872590Y739260D01*
Y740927D01*
X870924Y742593D01*
X867592D01*
X865925Y740927D01*
X752947Y417890D02*
Y414558D01*
Y416224D01*
X742950D01*
Y417890D01*
Y414558D01*
X751281Y402895D02*
X752947Y404561D01*
Y407893D01*
X751281Y409559D01*
X744616D01*
X742950Y407893D01*
Y404561D01*
X744616Y402895D01*
X742950Y399563D02*
Y396230D01*
Y397896D01*
X752947D01*
X751281Y399563D01*
X250233Y665943D02*
X248566Y667609D01*
X245234D01*
X243568Y665943D01*
Y659278D01*
X245234Y657612D01*
X248566D01*
X250233Y659278D01*
Y662610D01*
X246900D01*
X253565Y657612D02*
Y667609D01*
X258563D01*
X260229Y665943D01*
Y662610D01*
X258563Y660944D01*
X253565D01*
X270226Y665943D02*
X268560Y667609D01*
X265228D01*
X263562Y665943D01*
Y664277D01*
X265228Y662610D01*
X268560D01*
X270226Y660944D01*
Y659278D01*
X268560Y657612D01*
X265228D01*
X263562Y659278D01*
X280223Y657612D02*
X273558D01*
X280223Y664277D01*
Y665943D01*
X278557Y667609D01*
X275224D01*
X273558Y665943D01*
X21374Y666013D02*
X19708Y667679D01*
X16376D01*
X14710Y666013D01*
Y659348D01*
X16376Y657682D01*
X19708D01*
X21374Y659348D01*
Y662680D01*
X18042D01*
X24707Y657682D02*
Y667679D01*
X29705D01*
X31371Y666013D01*
Y662680D01*
X29705Y661014D01*
X24707D01*
X41368Y666013D02*
X39702Y667679D01*
X36370D01*
X34704Y666013D01*
Y664346D01*
X36370Y662680D01*
X39702D01*
X41368Y661014D01*
Y659348D01*
X39702Y657682D01*
X36370D01*
X34704Y659348D01*
X44700Y657682D02*
X48033D01*
X46367D01*
Y667679D01*
X44700Y666013D01*
X854497Y386335D02*
Y393000D01*
X849498D01*
Y389668D01*
Y393000D01*
X844500D01*
X854497Y383003D02*
X844500D01*
Y378005D01*
X846166Y376339D01*
X847832D01*
X849498Y378005D01*
Y383003D01*
Y378005D01*
X851164Y376339D01*
X852831D01*
X854497Y378005D01*
Y383003D01*
X844500Y366342D02*
Y373006D01*
X851164Y366342D01*
X852831D01*
X854497Y368008D01*
Y371340D01*
X852831Y373006D01*
X753747Y364836D02*
Y371500D01*
X748748D01*
Y368168D01*
Y371500D01*
X743750D01*
X753747Y361503D02*
X743750D01*
Y356505D01*
X745416Y354839D01*
X747082D01*
X748748Y356505D01*
Y361503D01*
Y356505D01*
X750415Y354839D01*
X752081D01*
X753747Y356505D01*
Y361503D01*
X743750Y351506D02*
Y348174D01*
Y349840D01*
X753747D01*
X752081Y351506D01*
X930747Y406146D02*
Y412810D01*
X925748D01*
Y409478D01*
Y412810D01*
X920750D01*
X930747Y396149D02*
X929081Y399481D01*
X925748Y402813D01*
X922416D01*
X920750Y401147D01*
Y397815D01*
X922416Y396149D01*
X924082D01*
X925748Y397815D01*
Y402813D01*
X295970Y834033D02*
X289306D01*
Y829034D01*
X292638D01*
X289306D01*
Y824036D01*
X305967Y834033D02*
X299303D01*
Y829034D01*
X302635Y830701D01*
X304301D01*
X305967Y829034D01*
Y825702D01*
X304301Y824036D01*
X300969D01*
X299303Y825702D01*
X150175Y304697D02*
X143510D01*
Y299698D01*
X146842D01*
X143510D01*
Y294700D01*
X158505D02*
Y304697D01*
X153507Y299698D01*
X160171D01*
X396554Y252373D02*
X389890D01*
Y247374D01*
X393222D01*
X389890D01*
Y242376D01*
X399887Y250707D02*
X401553Y252373D01*
X404885D01*
X406551Y250707D01*
Y249041D01*
X404885Y247374D01*
X403219D01*
X404885D01*
X406551Y245708D01*
Y244042D01*
X404885Y242376D01*
X401553D01*
X399887Y244042D01*
X168060Y594122D02*
X161395D01*
Y589124D01*
X164727D01*
X161395D01*
Y584125D01*
X178057D02*
X171392D01*
X178057Y590790D01*
Y592456D01*
X176390Y594122D01*
X173058D01*
X171392Y592456D01*
X94315Y596738D02*
X87651D01*
Y591739D01*
X90983D01*
X87651D01*
Y586741D01*
X97648D02*
X100980D01*
X99314D01*
Y596738D01*
X97648Y595071D01*
X915670Y554887D02*
Y544890D01*
X920668D01*
X922335Y546556D01*
Y553221D01*
X920668Y554887D01*
X915670D01*
X925667Y544890D02*
X928999D01*
X927333D01*
Y554887D01*
X925667Y553221D01*
X931296Y491920D02*
X932962Y493586D01*
Y496918D01*
X931296Y498584D01*
X924631D01*
X922965Y496918D01*
Y493586D01*
X924631Y491920D01*
X931296Y488587D02*
X932962Y486921D01*
Y483589D01*
X931296Y481923D01*
X929630D01*
X927963Y483589D01*
Y485255D01*
Y483589D01*
X926297Y481923D01*
X924631D01*
X922965Y483589D01*
Y486921D01*
X924631Y488587D01*
X922965Y478590D02*
Y475258D01*
Y476924D01*
X932962D01*
X931296Y478590D01*
X942899Y624910D02*
X941233Y623243D01*
Y619911D01*
X942899Y618245D01*
X949564D01*
X951230Y619911D01*
Y623243D01*
X949564Y624910D01*
X942899Y628242D02*
X941233Y629908D01*
Y633240D01*
X942899Y634906D01*
X944566D01*
X946232Y633240D01*
Y631574D01*
Y633240D01*
X947898Y634906D01*
X949564D01*
X951230Y633240D01*
Y629908D01*
X949564Y628242D01*
X942899Y638239D02*
X941233Y639905D01*
Y643237D01*
X942899Y644903D01*
X949564D01*
X951230Y643237D01*
Y639905D01*
X949564Y638239D01*
X942899D01*
X808041Y464175D02*
X809707Y465842D01*
Y469174D01*
X808041Y470840D01*
X801376D01*
X799710Y469174D01*
Y465842D01*
X801376Y464175D01*
X799710Y454179D02*
Y460843D01*
X806375Y454179D01*
X808041D01*
X809707Y455845D01*
Y459177D01*
X808041Y460843D01*
X801376Y450846D02*
X799710Y449180D01*
Y445848D01*
X801376Y444182D01*
X808041D01*
X809707Y445848D01*
Y449180D01*
X808041Y450846D01*
X806375D01*
X804708Y449180D01*
Y444182D01*
X835851Y464175D02*
X837517Y465842D01*
Y469174D01*
X835851Y470840D01*
X829186D01*
X827520Y469174D01*
Y465842D01*
X829186Y464175D01*
X827520Y454179D02*
Y460843D01*
X834184Y454179D01*
X835851D01*
X837517Y455845D01*
Y459177D01*
X835851Y460843D01*
Y450846D02*
X837517Y449180D01*
Y445848D01*
X835851Y444182D01*
X834184D01*
X832518Y445848D01*
X830852Y444182D01*
X829186D01*
X827520Y445848D01*
Y449180D01*
X829186Y450846D01*
X830852D01*
X832518Y449180D01*
X834184Y450846D01*
X835851D01*
X832518Y449180D02*
Y445848D01*
X884234Y579851D02*
X882568Y581517D01*
X879236D01*
X877570Y579851D01*
Y573186D01*
X879236Y571520D01*
X882568D01*
X884234Y573186D01*
X894231Y571520D02*
X887567D01*
X894231Y578185D01*
Y579851D01*
X892565Y581517D01*
X889233D01*
X887567Y579851D01*
X897564Y581517D02*
X904228D01*
Y579851D01*
X897564Y573186D01*
Y571520D01*
X814385Y789581D02*
X812718Y791247D01*
X809386D01*
X807720Y789581D01*
Y782916D01*
X809386Y781250D01*
X812718D01*
X814385Y782916D01*
X824381Y781250D02*
X817717D01*
X824381Y787915D01*
Y789581D01*
X822715Y791247D01*
X819383D01*
X817717Y789581D01*
X834378Y791247D02*
X831046Y789581D01*
X827714Y786248D01*
Y782916D01*
X829380Y781250D01*
X832712D01*
X834378Y782916D01*
Y784582D01*
X832712Y786248D01*
X827714D01*
X341764Y568411D02*
X340098Y570077D01*
X336766D01*
X335100Y568411D01*
Y561746D01*
X336766Y560080D01*
X340098D01*
X341764Y561746D01*
X351761Y560080D02*
X345097D01*
X351761Y566744D01*
Y568411D01*
X350095Y570077D01*
X346763D01*
X345097Y568411D01*
X361758Y570077D02*
X355093D01*
Y565078D01*
X358426Y566744D01*
X360092D01*
X361758Y565078D01*
Y561746D01*
X360092Y560080D01*
X356760D01*
X355093Y561746D01*
X587405Y651011D02*
X585738Y652677D01*
X582406D01*
X580740Y651011D01*
Y644346D01*
X582406Y642680D01*
X585738D01*
X587405Y644346D01*
X597401Y642680D02*
X590737D01*
X597401Y649344D01*
Y651011D01*
X595735Y652677D01*
X592403D01*
X590737Y651011D01*
X605732Y642680D02*
Y652677D01*
X600733Y647678D01*
X607398D01*
X634044Y652281D02*
X632378Y653947D01*
X629046D01*
X627380Y652281D01*
Y645616D01*
X629046Y643950D01*
X632378D01*
X634044Y645616D01*
X644041Y643950D02*
X637377D01*
X644041Y650614D01*
Y652281D01*
X642375Y653947D01*
X639043D01*
X637377Y652281D01*
X647374D02*
X649040Y653947D01*
X652372D01*
X654038Y652281D01*
Y650614D01*
X652372Y648948D01*
X650706D01*
X652372D01*
X654038Y647282D01*
Y645616D01*
X652372Y643950D01*
X649040D01*
X647374Y645616D01*
X427915Y620331D02*
X426248Y621997D01*
X422916D01*
X421250Y620331D01*
Y613666D01*
X422916Y612000D01*
X426248D01*
X427915Y613666D01*
X437911Y612000D02*
X431247D01*
X437911Y618665D01*
Y620331D01*
X436245Y621997D01*
X432913D01*
X431247Y620331D01*
X447908Y612000D02*
X441244D01*
X447908Y618665D01*
Y620331D01*
X446242Y621997D01*
X442910D01*
X441244Y620331D01*
X470215Y699271D02*
X468548Y700937D01*
X465216D01*
X463550Y699271D01*
Y692606D01*
X465216Y690940D01*
X468548D01*
X470215Y692606D01*
X480211Y690940D02*
X473547D01*
X480211Y697605D01*
Y699271D01*
X478545Y700937D01*
X475213D01*
X473547Y699271D01*
X483544D02*
X485210Y700937D01*
X488542D01*
X490208Y699271D01*
Y692606D01*
X488542Y690940D01*
X485210D01*
X483544Y692606D01*
Y699271D01*
X518821Y677925D02*
X520487Y679592D01*
Y682924D01*
X518821Y684590D01*
X512156D01*
X510490Y682924D01*
Y679592D01*
X512156Y677925D01*
X510490Y674593D02*
Y671261D01*
Y672927D01*
X520487D01*
X518821Y674593D01*
X512156Y666263D02*
X510490Y664596D01*
Y661264D01*
X512156Y659598D01*
X518821D01*
X520487Y661264D01*
Y664596D01*
X518821Y666263D01*
X517155D01*
X515488Y664596D01*
Y659598D01*
X369376Y657615D02*
X367710Y659281D01*
X364378D01*
X362712Y657615D01*
Y650950D01*
X364378Y649284D01*
X367710D01*
X369376Y650950D01*
X372709Y649284D02*
X376041D01*
X374375D01*
Y659281D01*
X372709Y657615D01*
X381039Y659281D02*
X387704D01*
Y657615D01*
X381039Y650950D01*
Y649284D01*
X396165Y517581D02*
X394498Y519247D01*
X391166D01*
X389500Y517581D01*
Y510916D01*
X391166Y509250D01*
X394498D01*
X396165Y510916D01*
X399497Y509250D02*
X402829D01*
X401163D01*
Y519247D01*
X399497Y517581D01*
X414492Y519247D02*
X411160Y517581D01*
X407827Y514248D01*
Y510916D01*
X409494Y509250D01*
X412826D01*
X414492Y510916D01*
Y512582D01*
X412826Y514248D01*
X407827D01*
X439734Y518931D02*
X438068Y520597D01*
X434736D01*
X433070Y518931D01*
Y512266D01*
X434736Y510600D01*
X438068D01*
X439734Y512266D01*
X443067Y510600D02*
X446399D01*
X444733D01*
Y520597D01*
X443067Y518931D01*
X458062Y520597D02*
X451397D01*
Y515598D01*
X454730Y517265D01*
X456396D01*
X458062Y515598D01*
Y512266D01*
X456396Y510600D01*
X453064D01*
X451397Y512266D01*
X624915Y511311D02*
X623248Y512977D01*
X619916D01*
X618250Y511311D01*
Y504646D01*
X619916Y502980D01*
X623248D01*
X624915Y504646D01*
X628247Y502980D02*
X631579D01*
X629913D01*
Y512977D01*
X628247Y511311D01*
X641576Y502980D02*
Y512977D01*
X636577Y507978D01*
X643242D01*
X549199Y467734D02*
X547533Y466068D01*
Y462736D01*
X549199Y461070D01*
X555864D01*
X557530Y462736D01*
Y466068D01*
X555864Y467734D01*
X557530Y471067D02*
Y474399D01*
Y472733D01*
X547533D01*
X549199Y471067D01*
Y479397D02*
X547533Y481064D01*
Y484396D01*
X549199Y486062D01*
X550866D01*
X552532Y484396D01*
Y482730D01*
Y484396D01*
X554198Y486062D01*
X555864D01*
X557530Y484396D01*
Y481064D01*
X555864Y479397D01*
X517894Y428576D02*
X519560Y430242D01*
Y433574D01*
X517894Y435240D01*
X511229D01*
X509563Y433574D01*
Y430242D01*
X511229Y428576D01*
X509563Y425243D02*
Y421911D01*
Y423577D01*
X519560D01*
X517894Y425243D01*
X509563Y410248D02*
Y416913D01*
X516228Y410248D01*
X517894D01*
X519560Y411914D01*
Y415247D01*
X517894Y416913D01*
X419414Y597671D02*
X417748Y599337D01*
X414416D01*
X412750Y597671D01*
Y591006D01*
X414416Y589340D01*
X417748D01*
X419414Y591006D01*
X422747D02*
X424413Y589340D01*
X427745D01*
X429411Y591006D01*
Y597671D01*
X427745Y599337D01*
X424413D01*
X422747Y597671D01*
Y596004D01*
X424413Y594338D01*
X429411D01*
X809305Y322471D02*
X807638Y324137D01*
X804306D01*
X802640Y322471D01*
Y315806D01*
X804306Y314140D01*
X807638D01*
X809305Y315806D01*
X812637Y322471D02*
X814303Y324137D01*
X817635D01*
X819301Y322471D01*
Y320804D01*
X817635Y319138D01*
X819301Y317472D01*
Y315806D01*
X817635Y314140D01*
X814303D01*
X812637Y315806D01*
Y317472D01*
X814303Y319138D01*
X812637Y320804D01*
Y322471D01*
X814303Y319138D02*
X817635D01*
X625154Y330245D02*
X623488Y331912D01*
X620156D01*
X618490Y330245D01*
Y323581D01*
X620156Y321915D01*
X623488D01*
X625154Y323581D01*
X628487Y331912D02*
X635151D01*
Y330245D01*
X628487Y323581D01*
Y321915D01*
X753425Y324621D02*
X751758Y326287D01*
X748426D01*
X746760Y324621D01*
Y317956D01*
X748426Y316290D01*
X751758D01*
X753425Y317956D01*
X763421Y326287D02*
X760089Y324621D01*
X756757Y321288D01*
Y317956D01*
X758423Y316290D01*
X761755D01*
X763421Y317956D01*
Y319622D01*
X761755Y321288D01*
X756757D01*
X685621Y326764D02*
X683954Y325098D01*
Y321766D01*
X685621Y320100D01*
X692285D01*
X693951Y321766D01*
Y325098D01*
X692285Y326764D01*
X683954Y336761D02*
Y330097D01*
X688953D01*
X687287Y333429D01*
Y335095D01*
X688953Y336761D01*
X692285D01*
X693951Y335095D01*
Y331763D01*
X692285Y330097D01*
X758764Y431301D02*
X757098Y432967D01*
X753766D01*
X752100Y431301D01*
Y424636D01*
X753766Y422970D01*
X757098D01*
X758764Y424636D01*
X767095Y422970D02*
Y432967D01*
X762097Y427968D01*
X768761D01*
X762315Y497341D02*
X760648Y499007D01*
X757316D01*
X755650Y497341D01*
Y490676D01*
X757316Y489010D01*
X760648D01*
X762315Y490676D01*
X765647Y497341D02*
X767313Y499007D01*
X770645D01*
X772311Y497341D01*
Y495675D01*
X770645Y494008D01*
X768979D01*
X770645D01*
X772311Y492342D01*
Y490676D01*
X770645Y489010D01*
X767313D01*
X765647Y490676D01*
X555664Y395331D02*
X553998Y396997D01*
X550666D01*
X549000Y395331D01*
Y388666D01*
X550666Y387000D01*
X553998D01*
X555664Y388666D01*
X565661Y387000D02*
X558997D01*
X565661Y393665D01*
Y395331D01*
X563995Y396997D01*
X560663D01*
X558997Y395331D01*
X584664Y405081D02*
X582998Y406747D01*
X579666D01*
X578000Y405081D01*
Y398416D01*
X579666Y396750D01*
X582998D01*
X584664Y398416D01*
X587997Y396750D02*
X591329D01*
X589663D01*
Y406747D01*
X587997Y405081D01*
X300736Y901089D02*
Y891092D01*
X305734D01*
X307400Y892758D01*
Y894424D01*
X305734Y896090D01*
X300736D01*
X305734D01*
X307400Y897757D01*
Y899423D01*
X305734Y901089D01*
X300736D01*
X310733Y891092D02*
X314065D01*
X312399D01*
Y901089D01*
X310733D01*
X319063Y897757D02*
Y892758D01*
X320730Y891092D01*
X325728D01*
Y897757D01*
X334059Y891092D02*
X330726D01*
X329060Y892758D01*
Y896090D01*
X330726Y897757D01*
X334059D01*
X335725Y896090D01*
Y894424D01*
X329060D01*
X340723Y899423D02*
Y897757D01*
X339057D01*
X342389D01*
X340723D01*
Y892758D01*
X342389Y891092D01*
X349054D02*
X352386D01*
X354052Y892758D01*
Y896090D01*
X352386Y897757D01*
X349054D01*
X347388Y896090D01*
Y892758D01*
X349054Y891092D01*
X359050D02*
X362383D01*
X364049Y892758D01*
Y896090D01*
X362383Y897757D01*
X359050D01*
X357384Y896090D01*
Y892758D01*
X359050Y891092D01*
X369047Y899423D02*
Y897757D01*
X367381D01*
X370713D01*
X369047D01*
Y892758D01*
X370713Y891092D01*
X375712Y901089D02*
Y891092D01*
Y896090D01*
X377378Y897757D01*
X380710D01*
X382376Y896090D01*
Y891092D01*
X385709D02*
X389041D01*
X387375D01*
Y901089D01*
X385709Y899423D01*
M02*
