G04*
G04 #@! TF.GenerationSoftware,Altium Limited,Altium Designer,19.0.10 (269)*
G04*
G04 Layer_Color=8421504*
%FSLAX44Y44*%
%MOMM*%
G71*
G01*
G75*
%ADD15R,0.3000X1.2000*%
%ADD16R,1.2000X0.3000*%
%ADD17R,1.4000X1.2500*%
%ADD18R,1.3000X1.1500*%
%ADD19R,3.8500X5.0500*%
%ADD20R,1.0000X1.3500*%
%ADD21R,1.9050X2.7900*%
%ADD22R,1.6000X2.4000*%
%ADD23R,0.7500X0.3000*%
%ADD24R,1.2500X1.4000*%
%ADD25R,1.1000X1.5500*%
%ADD26R,1.5500X1.1000*%
%ADD27R,2.5000X2.0000*%
%ADD28R,2.5000X0.5000*%
%ADD29R,1.4000X0.9500*%
%ADD30R,0.6500X1.9250*%
%ADD31R,1.3500X1.0000*%
%ADD32R,1.5250X0.6500*%
%ADD33R,1.4000X2.0000*%
%ADD34R,5.0500X3.8500*%
D15*
X485740Y626520D02*
D03*
X490740D02*
D03*
X495740D02*
D03*
X500740D02*
D03*
X505740D02*
D03*
X510740D02*
D03*
X515740D02*
D03*
X520740D02*
D03*
X525740D02*
D03*
X530740D02*
D03*
X535740D02*
D03*
X540740D02*
D03*
X545740D02*
D03*
X550740D02*
D03*
X555740D02*
D03*
X560740D02*
D03*
Y511520D02*
D03*
X555740D02*
D03*
X550740D02*
D03*
X545740D02*
D03*
X540740D02*
D03*
X535740D02*
D03*
X530740D02*
D03*
X525740D02*
D03*
X520740D02*
D03*
X515740D02*
D03*
X510740D02*
D03*
X505740D02*
D03*
X500740D02*
D03*
X495740D02*
D03*
X490740D02*
D03*
X485740D02*
D03*
D16*
X580740Y606520D02*
D03*
Y601520D02*
D03*
Y596520D02*
D03*
Y591520D02*
D03*
Y586520D02*
D03*
Y581520D02*
D03*
Y576520D02*
D03*
Y571520D02*
D03*
Y566520D02*
D03*
Y561520D02*
D03*
Y556520D02*
D03*
Y551520D02*
D03*
Y546520D02*
D03*
Y541520D02*
D03*
Y536520D02*
D03*
Y531520D02*
D03*
X465740D02*
D03*
Y536520D02*
D03*
Y541520D02*
D03*
Y546520D02*
D03*
Y551520D02*
D03*
Y556520D02*
D03*
Y561520D02*
D03*
Y566520D02*
D03*
Y571520D02*
D03*
Y576520D02*
D03*
Y581520D02*
D03*
Y586520D02*
D03*
Y591520D02*
D03*
Y596520D02*
D03*
Y601520D02*
D03*
Y606520D02*
D03*
D17*
X535750Y428500D02*
D03*
Y411500D02*
D03*
X911535Y489304D02*
D03*
Y472304D02*
D03*
X833870Y499660D02*
D03*
Y482660D02*
D03*
X732790Y340030D02*
D03*
Y323030D02*
D03*
X815340Y340810D02*
D03*
Y357810D02*
D03*
X707921Y341300D02*
D03*
Y324300D02*
D03*
X831750Y752500D02*
D03*
Y769500D02*
D03*
X567690Y489890D02*
D03*
Y472890D02*
D03*
X449580Y481700D02*
D03*
Y498700D02*
D03*
X423290Y477970D02*
D03*
Y494970D02*
D03*
X443230Y636720D02*
D03*
Y653720D02*
D03*
X474980Y661240D02*
D03*
Y678240D02*
D03*
X564250Y432750D02*
D03*
Y415750D02*
D03*
X497840Y660850D02*
D03*
Y677850D02*
D03*
X633730Y613520D02*
D03*
Y630520D02*
D03*
X609600Y613470D02*
D03*
Y630470D02*
D03*
X392250Y572000D02*
D03*
Y555000D02*
D03*
X589000Y442250D02*
D03*
Y425250D02*
D03*
X923810Y632910D02*
D03*
Y649910D02*
D03*
X807720Y482660D02*
D03*
Y499660D02*
D03*
X369810Y616000D02*
D03*
Y633000D02*
D03*
X420000Y556000D02*
D03*
Y573000D02*
D03*
D18*
X883560Y552510D02*
D03*
X902060D02*
D03*
D19*
X885190Y348460D02*
D03*
Y406460D02*
D03*
X314709Y730521D02*
D03*
Y788521D02*
D03*
X186751Y548499D02*
D03*
Y490499D02*
D03*
X112999Y493001D02*
D03*
Y551001D02*
D03*
X415180Y206859D02*
D03*
Y148859D02*
D03*
D20*
X790050Y217230D02*
D03*
X772050D02*
D03*
X883810Y529650D02*
D03*
X901810D02*
D03*
X711028Y537537D02*
D03*
X729028D02*
D03*
X862440Y551520D02*
D03*
X844440D02*
D03*
X890380Y452180D02*
D03*
X872380D02*
D03*
D21*
X889120Y626520D02*
D03*
X840620D02*
D03*
D22*
X872490Y485200D02*
D03*
D23*
X887490Y495200D02*
D03*
Y490200D02*
D03*
Y485200D02*
D03*
Y480200D02*
D03*
Y475200D02*
D03*
X857490D02*
D03*
Y480200D02*
D03*
Y485200D02*
D03*
Y490200D02*
D03*
Y495200D02*
D03*
D24*
X758580Y452180D02*
D03*
X775580D02*
D03*
X757310Y475040D02*
D03*
X774310D02*
D03*
X587750Y508250D02*
D03*
X604750D02*
D03*
X848990Y576640D02*
D03*
X865990D02*
D03*
X612530Y342960D02*
D03*
X629530D02*
D03*
D25*
X733820Y511270D02*
D03*
X703820D02*
D03*
D26*
X497840Y873580D02*
D03*
Y843580D02*
D03*
D27*
X934395Y757840D02*
D03*
Y845840D02*
D03*
X879395Y757840D02*
D03*
Y845840D02*
D03*
D28*
Y785840D02*
D03*
Y817840D02*
D03*
Y801840D02*
D03*
Y793840D02*
D03*
Y809840D02*
D03*
D29*
X847750Y356500D02*
D03*
Y338000D02*
D03*
X764540Y350220D02*
D03*
Y368720D02*
D03*
D30*
X727710Y366830D02*
D03*
X715010D02*
D03*
X702310D02*
D03*
X676910D02*
D03*
X664210D02*
D03*
X651510D02*
D03*
X638810D02*
D03*
X626110D02*
D03*
X613410D02*
D03*
Y461070D02*
D03*
X626110D02*
D03*
X638810D02*
D03*
X651510D02*
D03*
X664210D02*
D03*
X676910D02*
D03*
X689610D02*
D03*
X702310D02*
D03*
X715010D02*
D03*
X727710D02*
D03*
X689610Y366830D02*
D03*
D31*
X521970Y728950D02*
D03*
Y710950D02*
D03*
X528320Y862500D02*
D03*
Y844500D02*
D03*
D32*
X909770Y678240D02*
D03*
Y690940D02*
D03*
Y703640D02*
D03*
Y716340D02*
D03*
X855530D02*
D03*
Y703640D02*
D03*
Y690940D02*
D03*
Y678240D02*
D03*
D33*
X369810Y675950D02*
D03*
Y745950D02*
D03*
X399810Y675950D02*
D03*
Y745950D02*
D03*
D34*
X226910Y259140D02*
D03*
X168910D02*
D03*
M02*
