M48
;Layer_Color=9474304
;FILE_FORMAT=4:4
METRIC,LZ
;TYPE=PLATED
T1F00S00C0.7112
T2F00S00C0.9000
T3F00S00C1.0000
T4F00S00C1.0200
T5F00S00C1.0500
T6F00S00C1.5000
T7F00S00C1.6000
T8F00S00C3.0000
;TYPE=NON_PLATED
T9F00S00C0.9000
T10F00S00C3.0000
T11F00S00C3.2500
%
T01
X00153Y0006525
X0021025Y0016525
X004145Y0006925
X00653Y0050376
X0084425Y005225
X00826Y0044793
X0050292Y0046488
X0048514Y0046615
X0046736Y0046869
X0050074Y0053854
X00364Y00503
X00315Y004215
X0043434Y003836
X0041529Y0028962
X0033909Y0027946
X0021209Y003005
X005265Y0034125
X000675Y0040875
X0015025Y007495
X00081Y0084425
X00206561Y0084525
X00372Y00814
X0032325Y0065725
X0035025Y0059442
X00417669Y00610342
X0051574Y0059442
X0049784Y00575363
X0054991
X0055925Y0084575
X0063825Y0073625
X0066175Y0067525
X00723Y0071275
X0082931Y0073031
X0083825Y00843
X0092925Y0059575
T02
X0062738Y0015969
X0065278
X0067818
X0070358
X0076708
X0079248
X0081788
X0084328
X0083058Y0018509
X0085598
X0080518
X0077978
X0071628
X0069088
X0066548
X0064008
X007567Y0027032
X008067
X008317
X008567
X0079971Y0054743
X0077431
X0054483Y0077857
X004445Y0074555
Y0072015
Y0069475
X0057023Y0077857
X0059563
X0062103
X0064643
X0067183
X0077431Y0072523
X0079971
Y0069983
X0077431
Y0067443
X0079971
Y0064903
X0077431
Y0062363
X0079971
Y0059823
X0077431
Y0057283
X0079971
T03
X0031877Y0086747
X0034417
X0036957
X0039497
X0042037
X0044577
T04
X000813Y002012
Y002312
Y002612
X0007895Y007245
Y007545
Y007845
T05
X0005588Y001169
X0008128
X0010668
X0013208
X0015748
X0018288
X0020828
X0023368
X0030475Y0012452
Y0009912
Y0007372
Y0004832
Y0014992
X005334
Y0012452
Y0009912
Y0007372
Y0004832
Y0017532
Y0020072
Y0022612
X0030475
Y0020072
Y0017532
X0023368Y003455
X0020828
X0018288
X0025625Y0045425
Y0047965
Y0050505
Y0053045
Y0055585
X000275
Y0053045
Y0050505
Y0047965
Y0045425
X0005588Y003455
X0008128
X0010668
X0013208
X0015748
X000275Y0058125
Y0060665
Y0063205
X0025625
Y0060665
Y0058125
T06
X006617Y0023832
Y0030232
X009017
Y0023832
T07
X0058733Y0005049
X0089603
X0074168Y0019859
T08
X000225Y0002546
X0093599
X000225Y009195
X0093599
T09
X00905395Y0077984
Y0082384
T10
X000381Y002312
X0003575Y007545
T11
X0061468Y0009619
X0086868
M30
