G04*
G04 #@! TF.GenerationSoftware,Altium Limited,Altium Designer,19.0.10 (269)*
G04*
G04 Layer_Color=2752767*
%FSLAX44Y44*%
%MOMM*%
G71*
G01*
G75*
%ADD93C,0.0508*%
%ADD94C,0.0677*%
%ADD95C,0.0339*%
D93*
X20468Y917468D02*
Y921532D01*
X24532D01*
Y917468D01*
X20468D01*
X933958D02*
Y921532D01*
X938022D01*
Y917468D01*
X933958D01*
X20468Y23428D02*
Y27492D01*
X24532D01*
Y23428D01*
X20468D01*
X741680Y196558D02*
X739648Y200622D01*
X743712D01*
X741680Y196558D01*
X896030Y48458D02*
X893998Y52522D01*
X898062D01*
X896030Y48458D01*
X587330D02*
X585298Y52522D01*
X589362D01*
X587330Y48458D01*
X868680Y94158D02*
X869696Y95174D01*
X870712D01*
X869696Y96190D01*
X870712Y97206D01*
X869696D01*
X868680Y98222D01*
X867664Y97206D01*
X866648D01*
X867664Y96190D01*
X866648Y95174D01*
X867664D01*
X868680Y94158D01*
X614680D02*
X615696Y95174D01*
X616712D01*
X615696Y96190D01*
X616712Y97206D01*
X615696D01*
X614680Y98222D01*
X613664Y97206D01*
X612648D01*
X613664Y96190D01*
X612648Y95174D01*
X613664D01*
X614680Y94158D01*
X302718Y46288D02*
X303734Y48320D01*
X302718Y50352D01*
X304750Y49336D01*
X306782Y50352D01*
X305766Y48320D01*
X306782Y46288D01*
X304750Y47304D01*
X302718Y46288D01*
Y71688D02*
X303734Y73720D01*
X302718Y75752D01*
X304750Y74736D01*
X306782Y75752D01*
X305766Y73720D01*
X306782Y71688D01*
X304750Y72704D01*
X302718Y71688D01*
Y97088D02*
X303734Y99120D01*
X302718Y101152D01*
X304750Y100136D01*
X306782Y101152D01*
X305766Y99120D01*
X306782Y97088D01*
X304750Y98104D01*
X302718Y97088D01*
Y122488D02*
X303734Y124520D01*
X302718Y126552D01*
X304750Y125536D01*
X306782Y126552D01*
X305766Y124520D01*
X306782Y122488D01*
X304750Y123504D01*
X302718Y122488D01*
Y147888D02*
X303734Y149920D01*
X302718Y151952D01*
X304750Y150936D01*
X306782Y151952D01*
X305766Y149920D01*
X306782Y147888D01*
X304750Y148904D01*
X302718Y147888D01*
Y173288D02*
X303734Y175320D01*
X302718Y177352D01*
X304750Y176336D01*
X306782Y177352D01*
X305766Y175320D01*
X306782Y173288D01*
X304750Y174304D01*
X302718Y173288D01*
Y198688D02*
X303734Y200720D01*
X302718Y202752D01*
X304750Y201736D01*
X306782Y202752D01*
X305766Y200720D01*
X306782Y198688D01*
X304750Y199704D01*
X302718Y198688D01*
Y224088D02*
X303734Y226120D01*
X302718Y228152D01*
X304750Y227136D01*
X306782Y228152D01*
X305766Y226120D01*
X306782Y224088D01*
X304750Y225104D01*
X302718Y224088D01*
X904379Y778824D02*
Y777808D01*
X906411D01*
Y778824D01*
X907427D01*
Y780856D01*
X906411D01*
Y781872D01*
X904379D01*
Y780856D01*
X903363D01*
Y778824D01*
X904379D01*
Y822824D02*
Y821808D01*
X906411D01*
Y822824D01*
X907427D01*
Y824856D01*
X906411D01*
Y825872D01*
X904379D01*
Y824856D01*
X903363D01*
Y822824D01*
X904379D01*
X53848Y343468D02*
X54864Y345500D01*
X53848Y347532D01*
X55880Y346516D01*
X57912Y347532D01*
X56896Y345500D01*
X57912Y343468D01*
X55880Y344484D01*
X53848Y343468D01*
X79248D02*
X80264Y345500D01*
X79248Y347532D01*
X81280Y346516D01*
X83312Y347532D01*
X82296Y345500D01*
X83312Y343468D01*
X81280Y344484D01*
X79248Y343468D01*
X104648D02*
X105664Y345500D01*
X104648Y347532D01*
X106680Y346516D01*
X108712Y347532D01*
X107696Y345500D01*
X108712Y343468D01*
X106680Y344484D01*
X104648Y343468D01*
X130048D02*
X131064Y345500D01*
X130048Y347532D01*
X132080Y346516D01*
X134112Y347532D01*
X133096Y345500D01*
X134112Y343468D01*
X132080Y344484D01*
X130048Y343468D01*
X155448D02*
X156464Y345500D01*
X155448Y347532D01*
X157480Y346516D01*
X159512Y347532D01*
X158496Y345500D01*
X159512Y343468D01*
X157480Y344484D01*
X155448Y343468D01*
X180848D02*
X181864Y345500D01*
X180848Y347532D01*
X182880Y346516D01*
X184912Y347532D01*
X183896Y345500D01*
X184912Y343468D01*
X182880Y344484D01*
X180848Y343468D01*
X206248D02*
X207264Y345500D01*
X206248Y347532D01*
X208280Y346516D01*
X210312Y347532D01*
X209296Y345500D01*
X210312Y343468D01*
X208280Y344484D01*
X206248Y343468D01*
X231648D02*
X232664Y345500D01*
X231648Y347532D01*
X233680Y346516D01*
X235712Y347532D01*
X234696Y345500D01*
X235712Y343468D01*
X233680Y344484D01*
X231648Y343468D01*
X36068Y229168D02*
X37084D01*
X38100Y230184D01*
X39116Y229168D01*
X40132D01*
Y230184D01*
X39116Y231200D01*
X40132Y232216D01*
Y233232D01*
X39116D01*
X38100Y232216D01*
X37084Y233232D01*
X36068D01*
Y232216D01*
X37084Y231200D01*
X36068Y230184D01*
Y229168D01*
X79268Y261200D02*
X81300Y263232D01*
X83332Y261200D01*
X81300Y259168D01*
X79268Y261200D01*
Y231200D02*
X81300Y233232D01*
X83332Y231200D01*
X81300Y229168D01*
X79268Y231200D01*
Y201200D02*
X81300Y203232D01*
X83332Y201200D01*
X81300Y199168D01*
X79268Y201200D01*
X33718Y752468D02*
X34734D01*
X35750Y753484D01*
X36766Y752468D01*
X37782D01*
Y753484D01*
X36766Y754500D01*
X37782Y755516D01*
Y756532D01*
X36766D01*
X35750Y755516D01*
X34734Y756532D01*
X33718D01*
Y755516D01*
X34734Y754500D01*
X33718Y753484D01*
Y752468D01*
X76918Y784500D02*
X78950Y786532D01*
X80982Y784500D01*
X78950Y782468D01*
X76918Y784500D01*
Y754500D02*
X78950Y756532D01*
X80982Y754500D01*
X78950Y752468D01*
X76918Y754500D01*
Y724500D02*
X78950Y726532D01*
X80982Y724500D01*
X78950Y722468D01*
X76918Y724500D01*
X659668Y300288D02*
Y304352D01*
X663732D01*
Y300288D01*
X659668D01*
X660684Y301304D02*
Y303336D01*
X662716D01*
Y301304D01*
X660684D01*
X659668Y236288D02*
Y240352D01*
X663732D01*
Y236288D01*
X659668D01*
X660684Y237304D02*
Y239336D01*
X662716D01*
Y237304D01*
X660684D01*
X899668Y236288D02*
Y240352D01*
X903732D01*
Y236288D01*
X899668D01*
X900684Y237304D02*
Y239336D01*
X902716D01*
Y237304D01*
X900684D01*
X899668Y300288D02*
Y304352D01*
X903732D01*
Y300288D01*
X899668D01*
X900684Y301304D02*
Y303336D01*
X902716D01*
Y301304D01*
X900684D01*
X531368Y224088D02*
X532384Y226120D01*
X531368Y228152D01*
X533400Y227136D01*
X535432Y228152D01*
X534416Y226120D01*
X535432Y224088D01*
X533400Y225104D01*
X531368Y224088D01*
Y198688D02*
X532384Y200720D01*
X531368Y202752D01*
X533400Y201736D01*
X535432Y202752D01*
X534416Y200720D01*
X535432Y198688D01*
X533400Y199704D01*
X531368Y198688D01*
Y173288D02*
X532384Y175320D01*
X531368Y177352D01*
X533400Y176336D01*
X535432Y177352D01*
X534416Y175320D01*
X535432Y173288D01*
X533400Y174304D01*
X531368Y173288D01*
Y147888D02*
X532384Y149920D01*
X531368Y151952D01*
X533400Y150936D01*
X535432Y151952D01*
X534416Y149920D01*
X535432Y147888D01*
X533400Y148904D01*
X531368Y147888D01*
Y122488D02*
X532384Y124520D01*
X531368Y126552D01*
X533400Y125536D01*
X535432Y126552D01*
X534416Y124520D01*
X535432Y122488D01*
X533400Y123504D01*
X531368Y122488D01*
Y97088D02*
X532384Y99120D01*
X531368Y101152D01*
X533400Y100136D01*
X535432Y101152D01*
X534416Y99120D01*
X535432Y97088D01*
X533400Y98104D01*
X531368Y97088D01*
Y71688D02*
X532384Y73720D01*
X531368Y75752D01*
X533400Y74736D01*
X535432Y75752D01*
X534416Y73720D01*
X535432Y71688D01*
X533400Y72704D01*
X531368Y71688D01*
Y46288D02*
X532384Y48320D01*
X531368Y50352D01*
X533400Y49336D01*
X535432Y50352D01*
X534416Y48320D01*
X535432Y46288D01*
X533400Y47304D01*
X531368Y46288D01*
X933958Y23428D02*
Y27492D01*
X938022D01*
Y23428D01*
X933958D01*
X254218Y630018D02*
X255234Y632050D01*
X254218Y634082D01*
X256250Y633066D01*
X258282Y634082D01*
X257266Y632050D01*
X258282Y630018D01*
X256250Y631034D01*
X254218Y630018D01*
Y604618D02*
X255234Y606650D01*
X254218Y608682D01*
X256250Y607666D01*
X258282Y608682D01*
X257266Y606650D01*
X258282Y604618D01*
X256250Y605634D01*
X254218Y604618D01*
Y579218D02*
X255234Y581250D01*
X254218Y583282D01*
X256250Y582266D01*
X258282Y583282D01*
X257266Y581250D01*
X258282Y579218D01*
X256250Y580234D01*
X254218Y579218D01*
Y553818D02*
X255234Y555850D01*
X254218Y557882D01*
X256250Y556866D01*
X258282Y557882D01*
X257266Y555850D01*
X258282Y553818D01*
X256250Y554834D01*
X254218Y553818D01*
Y528418D02*
X255234Y530450D01*
X254218Y532482D01*
X256250Y531466D01*
X258282Y532482D01*
X257266Y530450D01*
X258282Y528418D01*
X256250Y529434D01*
X254218Y528418D01*
Y503018D02*
X255234Y505050D01*
X254218Y507082D01*
X256250Y506066D01*
X258282Y507082D01*
X257266Y505050D01*
X258282Y503018D01*
X256250Y504034D01*
X254218Y503018D01*
Y477618D02*
X255234Y479650D01*
X254218Y481682D01*
X256250Y480666D01*
X258282Y481682D01*
X257266Y479650D01*
X258282Y477618D01*
X256250Y478634D01*
X254218Y477618D01*
Y452218D02*
X255234Y454250D01*
X254218Y456282D01*
X256250Y455266D01*
X258282Y456282D01*
X257266Y454250D01*
X258282Y452218D01*
X256250Y453234D01*
X254218Y452218D01*
X25468Y630018D02*
X26484Y632050D01*
X25468Y634082D01*
X27500Y633066D01*
X29532Y634082D01*
X28516Y632050D01*
X29532Y630018D01*
X27500Y631034D01*
X25468Y630018D01*
Y604618D02*
X26484Y606650D01*
X25468Y608682D01*
X27500Y607666D01*
X29532Y608682D01*
X28516Y606650D01*
X29532Y604618D01*
X27500Y605634D01*
X25468Y604618D01*
Y579218D02*
X26484Y581250D01*
X25468Y583282D01*
X27500Y582266D01*
X29532Y583282D01*
X28516Y581250D01*
X29532Y579218D01*
X27500Y580234D01*
X25468Y579218D01*
Y553818D02*
X26484Y555850D01*
X25468Y557882D01*
X27500Y556866D01*
X29532Y557882D01*
X28516Y555850D01*
X29532Y553818D01*
X27500Y554834D01*
X25468Y553818D01*
Y528418D02*
X26484Y530450D01*
X25468Y532482D01*
X27500Y531466D01*
X29532Y532482D01*
X28516Y530450D01*
X29532Y528418D01*
X27500Y529434D01*
X25468Y528418D01*
Y503018D02*
X26484Y505050D01*
X25468Y507082D01*
X27500Y506066D01*
X29532Y507082D01*
X28516Y505050D01*
X29532Y503018D01*
X27500Y504034D01*
X25468Y503018D01*
Y477618D02*
X26484Y479650D01*
X25468Y481682D01*
X27500Y480666D01*
X29532Y481682D01*
X28516Y479650D01*
X29532Y477618D01*
X27500Y478634D01*
X25468Y477618D01*
Y452218D02*
X26484Y454250D01*
X25468Y456282D01*
X27500Y455266D01*
X29532Y456282D01*
X28516Y454250D01*
X29532Y452218D01*
X27500Y453234D01*
X25468Y452218D01*
X231648Y114868D02*
X232664Y116900D01*
X231648Y118932D01*
X233680Y117916D01*
X235712Y118932D01*
X234696Y116900D01*
X235712Y114868D01*
X233680Y115884D01*
X231648Y114868D01*
X206248D02*
X207264Y116900D01*
X206248Y118932D01*
X208280Y117916D01*
X210312Y118932D01*
X209296Y116900D01*
X210312Y114868D01*
X208280Y115884D01*
X206248Y114868D01*
X180848D02*
X181864Y116900D01*
X180848Y118932D01*
X182880Y117916D01*
X184912Y118932D01*
X183896Y116900D01*
X184912Y114868D01*
X182880Y115884D01*
X180848Y114868D01*
X155448D02*
X156464Y116900D01*
X155448Y118932D01*
X157480Y117916D01*
X159512Y118932D01*
X158496Y116900D01*
X159512Y114868D01*
X157480Y115884D01*
X155448Y114868D01*
X130048D02*
X131064Y116900D01*
X130048Y118932D01*
X132080Y117916D01*
X134112Y118932D01*
X133096Y116900D01*
X134112Y114868D01*
X132080Y115884D01*
X130048Y114868D01*
X104648D02*
X105664Y116900D01*
X104648Y118932D01*
X106680Y117916D01*
X108712Y118932D01*
X107696Y116900D01*
X108712Y114868D01*
X106680Y115884D01*
X104648Y114868D01*
X79248D02*
X80264Y116900D01*
X79248Y118932D01*
X81280Y117916D01*
X83312Y118932D01*
X82296Y116900D01*
X83312Y114868D01*
X81280Y115884D01*
X79248Y114868D01*
X53848D02*
X54864Y116900D01*
X53848Y118932D01*
X55880Y117916D01*
X57912Y118932D01*
X56896Y116900D01*
X57912Y114868D01*
X55880Y115884D01*
X53848Y114868D01*
X350250Y592388D02*
X348218Y596452D01*
X352282D01*
X350250Y592388D01*
Y593404D02*
X349234Y595436D01*
X351266D01*
X350250Y593404D01*
X844250Y520468D02*
X842218Y524532D01*
X846282D01*
X844250Y520468D01*
Y521484D02*
X843234Y523516D01*
X845266D01*
X844250Y521484D01*
X826000Y445898D02*
X823968Y449962D01*
X828032D01*
X826000Y445898D01*
Y446914D02*
X824984Y448946D01*
X827016D01*
X826000Y446914D01*
X67500Y406718D02*
X65468Y410782D01*
X69532D01*
X67500Y406718D01*
Y407734D02*
X66484Y409766D01*
X68516D01*
X67500Y407734D01*
X153000Y63218D02*
X150968Y67282D01*
X155032D01*
X153000Y63218D01*
Y64234D02*
X151984Y66266D01*
X154016D01*
X153000Y64234D01*
X364000Y500968D02*
X361968Y505032D01*
X366032D01*
X364000Y500968D01*
Y501984D02*
X362984Y504016D01*
X365016D01*
X364000Y501984D01*
X526500Y339218D02*
X524468Y343282D01*
X528532D01*
X526500Y339218D01*
Y340234D02*
X525484Y342266D01*
X527516D01*
X526500Y340234D01*
X315000Y419468D02*
X312968Y423532D01*
X317032D01*
X315000Y419468D01*
Y420484D02*
X313984Y422516D01*
X316016D01*
X315000Y420484D01*
X414500Y67218D02*
X412468Y71282D01*
X416532D01*
X414500Y67218D01*
Y68234D02*
X413484Y70266D01*
X415516D01*
X414500Y68234D01*
X210250Y163218D02*
X208218Y167282D01*
X212282D01*
X210250Y163218D01*
Y164234D02*
X209234Y166266D01*
X211266D01*
X210250Y164234D01*
X653000Y501728D02*
X650968Y505792D01*
X655032D01*
X653000Y501728D01*
Y502744D02*
X651984Y504776D01*
X654016D01*
X653000Y502744D01*
X929250Y593718D02*
X927218Y597782D01*
X931282D01*
X929250Y593718D01*
Y594734D02*
X928234Y596766D01*
X930266D01*
X929250Y594734D01*
X838250Y840968D02*
X836218Y845032D01*
X840282D01*
X838250Y840968D01*
Y841984D02*
X837234Y844016D01*
X839266D01*
X838250Y841984D01*
X723000Y710718D02*
X720968Y714782D01*
X725032D01*
X723000Y710718D01*
Y711734D02*
X721984Y713766D01*
X724016D01*
X723000Y711734D01*
X661750Y673218D02*
X659718Y677282D01*
X663782D01*
X661750Y673218D01*
Y674234D02*
X660734Y676266D01*
X662766D01*
X661750Y674234D01*
X638250Y734218D02*
X636218Y738282D01*
X640282D01*
X638250Y734218D01*
Y735234D02*
X637234Y737266D01*
X639266D01*
X638250Y735234D01*
X372000Y811968D02*
X369968Y816032D01*
X374032D01*
X372000Y811968D01*
Y812984D02*
X370984Y815016D01*
X373016D01*
X372000Y812984D01*
X559250Y843718D02*
X557218Y847782D01*
X561282D01*
X559250Y843718D01*
Y844734D02*
X558234Y846766D01*
X560266D01*
X559250Y844734D01*
X323250Y655218D02*
X321218Y659282D01*
X325282D01*
X323250Y655218D01*
Y656234D02*
X322234Y658266D01*
X324266D01*
X323250Y656234D01*
X150250Y747468D02*
X148218Y751532D01*
X152282D01*
X150250Y747468D01*
Y748484D02*
X149234Y750516D01*
X151266D01*
X150250Y748484D01*
X206561Y843218D02*
X204529Y847282D01*
X208593D01*
X206561Y843218D01*
Y844234D02*
X205545Y846266D01*
X207577D01*
X206561Y844234D01*
X81000Y842218D02*
X78968Y846282D01*
X83032D01*
X81000Y842218D01*
Y843234D02*
X79984Y845266D01*
X82016D01*
X81000Y843234D01*
X829310Y728278D02*
X827278Y732342D01*
X831342D01*
X829310Y728278D01*
Y729294D02*
X828294Y731326D01*
X830326D01*
X829310Y729294D01*
X500740Y536508D02*
X498708Y540572D01*
X502772D01*
X500740Y536508D01*
Y537524D02*
X499724Y539556D01*
X501756D01*
X500740Y537524D01*
X417669Y608310D02*
X415637Y612374D01*
X419701D01*
X417669Y608310D01*
Y609326D02*
X416653Y611358D01*
X418685D01*
X417669Y609326D01*
X502920Y462848D02*
X500888Y466912D01*
X504952D01*
X502920Y462848D01*
Y463864D02*
X501904Y465896D01*
X503936D01*
X502920Y463864D01*
X467360Y466658D02*
X465328Y470722D01*
X469392D01*
X467360Y466658D01*
Y467674D02*
X466344Y469706D01*
X468376D01*
X467360Y467674D01*
X485140Y464118D02*
X483108Y468182D01*
X487172D01*
X485140Y464118D01*
Y465134D02*
X484124Y467166D01*
X486156D01*
X485140Y465134D01*
X434340Y381568D02*
X432308Y385632D01*
X436372D01*
X434340Y381568D01*
Y382584D02*
X433324Y384616D01*
X435356D01*
X434340Y382584D01*
X415290Y287588D02*
X413258Y291652D01*
X417322D01*
X415290Y287588D01*
Y288604D02*
X414274Y290636D01*
X416306D01*
X415290Y288604D01*
X515740Y592388D02*
X513708Y596452D01*
X517772D01*
X515740Y592388D01*
Y593404D02*
X514724Y595436D01*
X516756D01*
X515740Y593404D01*
X497840Y573331D02*
X495808Y577395D01*
X499872D01*
X497840Y573331D01*
Y574347D02*
X496824Y576379D01*
X498856D01*
X497840Y574347D01*
X339090Y277428D02*
X337058Y281492D01*
X341122D01*
X339090Y277428D01*
Y278444D02*
X338074Y280476D01*
X340106D01*
X339090Y278444D01*
X212090Y298468D02*
X210058Y302532D01*
X214122D01*
X212090Y298468D01*
Y299484D02*
X211074Y301516D01*
X213106D01*
X212090Y299484D01*
X549910Y573331D02*
X547878Y577395D01*
X551942D01*
X549910Y573331D01*
Y574347D02*
X548894Y576379D01*
X550926D01*
X549910Y574347D01*
D94*
X692912Y185090D02*
G03*
X692912Y185090I-2032J0D01*
G01*
X718312D02*
G03*
X718312Y185090I-2032J0D01*
G01*
X769112Y159690D02*
G03*
X769112Y159690I-2032J0D01*
G01*
X794512D02*
G03*
X794512Y159690I-2032J0D01*
G01*
X819912D02*
G03*
X819912Y159690I-2032J0D01*
G01*
X832612Y185090D02*
G03*
X832612Y185090I-2032J0D01*
G01*
X845312Y159690D02*
G03*
X845312Y159690I-2032J0D01*
G01*
X858012Y185090D02*
G03*
X858012Y185090I-2032J0D01*
G01*
X705612Y159690D02*
G03*
X705612Y159690I-2032J0D01*
G01*
X680212D02*
G03*
X680212Y159690I-2032J0D01*
G01*
X667512Y185090D02*
G03*
X667512Y185090I-2032J0D01*
G01*
X654812Y159690D02*
G03*
X654812Y159690I-2032J0D01*
G01*
X642112Y185090D02*
G03*
X642112Y185090I-2032J0D01*
G01*
X629412Y159690D02*
G03*
X629412Y159690I-2032J0D01*
G01*
X781812Y185090D02*
G03*
X781812Y185090I-2032J0D01*
G01*
X807212D02*
G03*
X807212Y185090I-2032J0D01*
G01*
X758732Y270320D02*
G03*
X758732Y270320I-2032J0D01*
G01*
X808732D02*
G03*
X808732Y270320I-2032J0D01*
G01*
X833732D02*
G03*
X833732Y270320I-2032J0D01*
G01*
X858732D02*
G03*
X858732Y270320I-2032J0D01*
G01*
X446532Y694750D02*
G03*
X446532Y694750I-2032J0D01*
G01*
Y720150D02*
G03*
X446532Y720150I-2032J0D01*
G01*
Y745550D02*
G03*
X446532Y745550I-2032J0D01*
G01*
X546862Y778570D02*
G03*
X546862Y778570I-2032J0D01*
G01*
X572262D02*
G03*
X572262Y778570I-2032J0D01*
G01*
X597662D02*
G03*
X597662Y778570I-2032J0D01*
G01*
X623062D02*
G03*
X623062Y778570I-2032J0D01*
G01*
X648462D02*
G03*
X648462Y778570I-2032J0D01*
G01*
X673862D02*
G03*
X673862Y778570I-2032J0D01*
G01*
X776342Y725230D02*
G03*
X776342Y725230I-2032J0D01*
G01*
X801742D02*
G03*
X801742Y725230I-2032J0D01*
G01*
X776342Y699830D02*
G03*
X776342Y699830I-2032J0D01*
G01*
X801742D02*
G03*
X801742Y699830I-2032J0D01*
G01*
X776342Y674430D02*
G03*
X776342Y674430I-2032J0D01*
G01*
X801742D02*
G03*
X801742Y674430I-2032J0D01*
G01*
X776342Y649030D02*
G03*
X776342Y649030I-2032J0D01*
G01*
X801742D02*
G03*
X801742Y649030I-2032J0D01*
G01*
X776342Y623630D02*
G03*
X776342Y623630I-2032J0D01*
G01*
X801742D02*
G03*
X801742Y623630I-2032J0D01*
G01*
X776342Y598230D02*
G03*
X776342Y598230I-2032J0D01*
G01*
X801742D02*
G03*
X801742Y598230I-2032J0D01*
G01*
X776342Y572830D02*
G03*
X776342Y572830I-2032J0D01*
G01*
X801742D02*
G03*
X801742Y572830I-2032J0D01*
G01*
X776342Y547430D02*
G03*
X776342Y547430I-2032J0D01*
G01*
X801742D02*
G03*
X801742Y547430I-2032J0D01*
G01*
X320802Y867470D02*
G03*
X320802Y867470I-2032J0D01*
G01*
X346202D02*
G03*
X346202Y867470I-2032J0D01*
G01*
X371602D02*
G03*
X371602Y867470I-2032J0D01*
G01*
X397002D02*
G03*
X397002Y867470I-2032J0D01*
G01*
X422402D02*
G03*
X422402Y867470I-2032J0D01*
G01*
X447802D02*
G03*
X447802Y867470I-2032J0D01*
G01*
D95*
X319786D02*
G03*
X319786Y867470I-1016J0D01*
G01*
X345186D02*
G03*
X345186Y867470I-1016J0D01*
G01*
X370586D02*
G03*
X370586Y867470I-1016J0D01*
G01*
X395986D02*
G03*
X395986Y867470I-1016J0D01*
G01*
X421386D02*
G03*
X421386Y867470I-1016J0D01*
G01*
X446786D02*
G03*
X446786Y867470I-1016J0D01*
G01*
M02*
