G04*
G04 #@! TF.GenerationSoftware,Altium Limited,Altium Designer,19.0.10 (269)*
G04*
G04 Layer_Color=255*
%FSLAX44Y44*%
%MOMM*%
G71*
G01*
G75*
%ADD74C,1.5240*%
%ADD75C,1.4000*%
%ADD76R,1.4000X1.4000*%
%ADD77C,2.4000*%
%ADD78C,3.2500*%
%ADD79R,1.5750X1.5750*%
%ADD80C,1.5750*%
%ADD81C,0.9000*%
%ADD82R,1.5750X1.5750*%
%ADD83C,1.5000*%
%ADD84C,1.5300*%
%ADD85C,2.2500*%
%ADD86R,1.5000X1.5000*%
%ADD87R,1.5000X1.5000*%
%ADD88C,1.5500*%
%ADD89R,1.5500X1.5500*%
D74*
X22500Y919500D02*
D03*
X935990D02*
D03*
X22500Y25460D02*
D03*
X935990D02*
D03*
D75*
X690880Y185090D02*
D03*
X716280D02*
D03*
X792480Y159690D02*
D03*
X817880D02*
D03*
X830580Y185090D02*
D03*
X843280Y159690D02*
D03*
X855980Y185090D02*
D03*
X703580Y159690D02*
D03*
X678180D02*
D03*
X665480Y185090D02*
D03*
X652780Y159690D02*
D03*
X640080Y185090D02*
D03*
X779780D02*
D03*
X805180D02*
D03*
X756700Y270320D02*
D03*
X806700D02*
D03*
X831700D02*
D03*
D76*
X767080Y159690D02*
D03*
X627380D02*
D03*
X856700Y270320D02*
D03*
D77*
X741680Y198590D02*
D03*
X896030Y50490D02*
D03*
X587330D02*
D03*
D78*
X868680Y96190D02*
D03*
X614680D02*
D03*
D79*
X304750Y48320D02*
D03*
X533400D02*
D03*
X256250Y632050D02*
D03*
X27500D02*
D03*
D80*
X304750Y73720D02*
D03*
Y99120D02*
D03*
Y124520D02*
D03*
Y149920D02*
D03*
Y175320D02*
D03*
Y200720D02*
D03*
Y226120D02*
D03*
X55880Y345500D02*
D03*
X81280D02*
D03*
X106680D02*
D03*
X132080D02*
D03*
X157480D02*
D03*
X182880D02*
D03*
X208280D02*
D03*
X533400Y226120D02*
D03*
Y200720D02*
D03*
Y175320D02*
D03*
Y149920D02*
D03*
Y124520D02*
D03*
Y99120D02*
D03*
Y73720D02*
D03*
X256250Y606650D02*
D03*
Y581250D02*
D03*
Y555850D02*
D03*
Y530450D02*
D03*
Y505050D02*
D03*
Y479650D02*
D03*
Y454250D02*
D03*
X27500Y606650D02*
D03*
Y581250D02*
D03*
Y555850D02*
D03*
Y530450D02*
D03*
Y505050D02*
D03*
Y479650D02*
D03*
Y454250D02*
D03*
X208280Y116900D02*
D03*
X182880D02*
D03*
X157480D02*
D03*
X132080D02*
D03*
X106680D02*
D03*
X81280D02*
D03*
X55880D02*
D03*
D81*
X905395Y779840D02*
D03*
Y823840D02*
D03*
D82*
X233680Y345500D02*
D03*
Y116900D02*
D03*
D83*
X38100Y231200D02*
D03*
X35750Y754500D02*
D03*
X444500Y720150D02*
D03*
Y745550D02*
D03*
X570230Y778570D02*
D03*
X595630D02*
D03*
X621030D02*
D03*
X646430D02*
D03*
X671830D02*
D03*
X799710Y725230D02*
D03*
X774310Y699830D02*
D03*
X799710D02*
D03*
X774310Y674430D02*
D03*
X799710D02*
D03*
X774310Y649030D02*
D03*
X799710D02*
D03*
X774310Y623630D02*
D03*
X799710D02*
D03*
X774310Y598230D02*
D03*
X799710D02*
D03*
X774310Y572830D02*
D03*
X799710D02*
D03*
X774310Y547430D02*
D03*
X799710D02*
D03*
D84*
X81300Y261200D02*
D03*
Y231200D02*
D03*
Y201200D02*
D03*
X78950Y784500D02*
D03*
Y754500D02*
D03*
Y724500D02*
D03*
D85*
X661700Y302320D02*
D03*
Y238320D02*
D03*
X901700D02*
D03*
Y302320D02*
D03*
D86*
X444500Y694750D02*
D03*
X774310Y725230D02*
D03*
D87*
X544830Y778570D02*
D03*
D88*
X318770Y867470D02*
D03*
X344170D02*
D03*
X369570D02*
D03*
X394970D02*
D03*
X420370D02*
D03*
D89*
X445770D02*
D03*
M02*
