G04*
G04 #@! TF.GenerationSoftware,Altium Limited,Altium Designer,19.0.10 (269)*
G04*
G04 Layer_Color=32896*
%FSLAX44Y44*%
%MOMM*%
G71*
G01*
G75*
%ADD11C,0.1000*%
%ADD92C,0.0500*%
D11*
X523240Y564020D02*
Y574020D01*
X518240Y569020D02*
X528240D01*
X530750Y420000D02*
X540750D01*
X535750Y415000D02*
Y425000D01*
X892810Y547510D02*
Y557510D01*
X887810Y552510D02*
X897810D01*
X906535Y480804D02*
X916535D01*
X911535Y475804D02*
Y485804D01*
X781050Y212230D02*
Y222230D01*
X776050Y217230D02*
X786050D01*
X892810Y524650D02*
Y534650D01*
X887810Y529650D02*
X897810D01*
X828870Y491160D02*
X838870D01*
X833870Y486160D02*
Y496160D01*
X767080Y447180D02*
Y457180D01*
X762080Y452180D02*
X772080D01*
X720028Y532537D02*
Y542537D01*
X715028Y537537D02*
X725028D01*
X765810Y470040D02*
Y480040D01*
X760810Y475040D02*
X770810D01*
X727790Y331530D02*
X737790D01*
X732790Y326530D02*
Y336530D01*
X810340Y349310D02*
X820340D01*
X815340Y344310D02*
Y354310D01*
X842750Y347250D02*
X852750D01*
X847750Y342250D02*
Y352250D01*
X702921Y332800D02*
X712921D01*
X707921Y327800D02*
Y337800D01*
X826750Y761000D02*
X836750D01*
X831750Y756000D02*
Y766000D01*
X562690Y481390D02*
X572690D01*
X567690Y476390D02*
Y486390D01*
X596250Y503250D02*
Y513250D01*
X591250Y508250D02*
X601250D01*
X516970Y719950D02*
X526970D01*
X521970Y714950D02*
Y724950D01*
X444580Y490200D02*
X454580D01*
X449580Y485200D02*
Y495200D01*
X418290Y486470D02*
X428290D01*
X423290Y481470D02*
Y491470D01*
X438230Y645220D02*
X448230D01*
X443230Y640220D02*
Y650220D01*
X469980Y669740D02*
X479980D01*
X474980Y664740D02*
Y674740D01*
X559250Y424250D02*
X569250D01*
X564250Y419250D02*
Y429250D01*
X492840Y669350D02*
X502840D01*
X497840Y664350D02*
Y674350D01*
X857490Y571640D02*
Y581640D01*
X852490Y576640D02*
X862490D01*
X628730Y622020D02*
X638730D01*
X633730Y617020D02*
Y627020D01*
X604600Y621970D02*
X614600D01*
X609600Y616970D02*
Y626970D01*
X387250Y563500D02*
X397250D01*
X392250Y558500D02*
Y568500D01*
X584000Y433750D02*
X594000D01*
X589000Y428750D02*
Y438750D01*
X853440Y546520D02*
Y556520D01*
X848440Y551520D02*
X858440D01*
X881380Y447180D02*
Y457180D01*
X876380Y452180D02*
X886380D01*
X918810Y641410D02*
X928810D01*
X923810Y636410D02*
Y646410D01*
X802720Y491160D02*
X812720D01*
X807720Y486160D02*
Y496160D01*
X759540Y359470D02*
X769540D01*
X764540Y354470D02*
Y364470D01*
X616030Y342960D02*
X626030D01*
X621030Y337960D02*
Y347960D01*
X369810Y619500D02*
Y629500D01*
X364810Y624500D02*
X374810D01*
X420000Y559500D02*
Y569500D01*
X415000Y564500D02*
X425000D01*
X528320Y848500D02*
Y858500D01*
X523320Y853500D02*
X533320D01*
D92*
X456240Y502020D02*
X590240D01*
X456240Y636020D02*
X590240D01*
Y502020D02*
Y636020D01*
X456240Y502020D02*
Y636020D01*
X545250Y403000D02*
Y437000D01*
X526250Y403000D02*
Y437000D01*
X545250D01*
X526250Y403000D02*
X545250D01*
X874560Y562010D02*
X911060D01*
X874560Y543010D02*
X911060D01*
X874560D02*
Y562010D01*
X911060Y543010D02*
Y562010D01*
X921035Y463804D02*
Y497804D01*
X902035Y463804D02*
Y497804D01*
X921035D01*
X902035Y463804D02*
X921035D01*
X764550Y207730D02*
X797550D01*
X764550Y226730D02*
X797550D01*
Y207730D02*
Y226730D01*
X764550Y207730D02*
Y226730D01*
X876310Y539150D02*
X909310D01*
X876310Y520150D02*
X909310D01*
X876310D02*
Y539150D01*
X909310Y520150D02*
Y539150D01*
X843370Y474160D02*
Y508160D01*
X824370Y474160D02*
Y508160D01*
X843370D01*
X824370Y474160D02*
X843370D01*
X750080Y461680D02*
X784080D01*
X750080Y442680D02*
X784080D01*
X750080D02*
Y461680D01*
X784080Y442680D02*
Y461680D01*
X703528Y547037D02*
X736528D01*
X703528Y528037D02*
X736528D01*
X703528D02*
Y547037D01*
X736528Y528037D02*
Y547037D01*
X748810Y484540D02*
X782810D01*
X748810Y465540D02*
X782810D01*
X748810D02*
Y484540D01*
X782810Y465540D02*
Y484540D01*
X742290Y314530D02*
Y348530D01*
X723290Y314530D02*
Y348530D01*
X742290D01*
X723290Y314530D02*
X742290D01*
X805840Y332310D02*
Y366310D01*
X824840Y332310D02*
Y366310D01*
X805840Y332310D02*
X824840D01*
X805840Y366310D02*
X824840D01*
X857250Y330750D02*
Y363750D01*
X838250Y330750D02*
Y363750D01*
X857250D01*
X838250Y330750D02*
X857250D01*
X717421Y315800D02*
Y349800D01*
X698421Y315800D02*
Y349800D01*
X717421D01*
X698421Y315800D02*
X717421D01*
X822250Y744000D02*
Y778000D01*
X841250Y744000D02*
Y778000D01*
X822250Y744000D02*
X841250D01*
X822250Y778000D02*
X841250D01*
X577190Y464390D02*
Y498390D01*
X558190Y464390D02*
Y498390D01*
X577190D01*
X558190Y464390D02*
X577190D01*
X579250Y517750D02*
X613250D01*
X579250Y498750D02*
X613250D01*
X579250D02*
Y517750D01*
X613250Y498750D02*
Y517750D01*
X531470Y703450D02*
Y736450D01*
X512470Y703450D02*
Y736450D01*
X531470D01*
X512470Y703450D02*
X531470D01*
X440080Y473200D02*
Y507200D01*
X459080Y473200D02*
Y507200D01*
X440080Y473200D02*
X459080D01*
X440080Y507200D02*
X459080D01*
X413790Y469470D02*
Y503470D01*
X432790Y469470D02*
Y503470D01*
X413790Y469470D02*
X432790D01*
X413790Y503470D02*
X432790D01*
X433730Y628220D02*
Y662220D01*
X452730Y628220D02*
Y662220D01*
X433730Y628220D02*
X452730D01*
X433730Y662220D02*
X452730D01*
X465480Y652740D02*
Y686740D01*
X484480Y652740D02*
Y686740D01*
X465480Y652740D02*
X484480D01*
X465480Y686740D02*
X484480D01*
X573750Y407250D02*
Y441250D01*
X554750Y407250D02*
Y441250D01*
X573750D01*
X554750Y407250D02*
X573750D01*
X488340Y652350D02*
Y686350D01*
X507340Y652350D02*
Y686350D01*
X488340Y652350D02*
X507340D01*
X488340Y686350D02*
X507340D01*
X840490Y586140D02*
X874490D01*
X840490Y567140D02*
X874490D01*
X840490D02*
Y586140D01*
X874490Y567140D02*
Y586140D01*
X624230Y605020D02*
Y639020D01*
X643230Y605020D02*
Y639020D01*
X624230Y605020D02*
X643230D01*
X624230Y639020D02*
X643230D01*
X600100Y604970D02*
Y638970D01*
X619100Y604970D02*
Y638970D01*
X600100Y604970D02*
X619100D01*
X600100Y638970D02*
X619100D01*
X401750Y546500D02*
Y580500D01*
X382750Y546500D02*
Y580500D01*
X401750D01*
X382750Y546500D02*
X401750D01*
X598500Y416750D02*
Y450750D01*
X579500Y416750D02*
Y450750D01*
X598500D01*
X579500Y416750D02*
X598500D01*
X836940Y542020D02*
X869940D01*
X836940Y561020D02*
X869940D01*
Y542020D02*
Y561020D01*
X836940Y542020D02*
Y561020D01*
X864880Y442680D02*
X897880D01*
X864880Y461680D02*
X897880D01*
Y442680D02*
Y461680D01*
X864880Y442680D02*
Y461680D01*
X914310Y624410D02*
Y658410D01*
X933310Y624410D02*
Y658410D01*
X914310Y624410D02*
X933310D01*
X914310Y658410D02*
X933310D01*
X798220Y474160D02*
Y508160D01*
X817220Y474160D02*
Y508160D01*
X798220Y474160D02*
X817220D01*
X798220Y508160D02*
X817220D01*
X755040Y342970D02*
Y375970D01*
X774040Y342970D02*
Y375970D01*
X755040Y342970D02*
X774040D01*
X755040Y375970D02*
X774040D01*
X604030Y333460D02*
Y352460D01*
X638030Y333460D02*
Y352460D01*
X604030D02*
X638030D01*
X604030Y333460D02*
X638030D01*
X360310Y607500D02*
X379310D01*
X360310Y641500D02*
X379310D01*
X360310Y607500D02*
Y641500D01*
X379310Y607500D02*
Y641500D01*
X410500Y547500D02*
X429500D01*
X410500Y581500D02*
X429500D01*
X410500Y547500D02*
Y581500D01*
X429500Y547500D02*
Y581500D01*
X518820Y870000D02*
X537820D01*
X518820Y837000D02*
X537820D01*
Y870000D01*
X518820Y837000D02*
Y870000D01*
M02*
