G04*
G04 #@! TF.GenerationSoftware,Altium Limited,Altium Designer,19.0.10 (269)*
G04*
G04 Layer_Color=8388736*
%FSLAX44Y44*%
%MOMM*%
G71*
G01*
G75*
%ADD35R,0.5032X1.4032*%
%ADD36R,1.4032X0.5032*%
%ADD37R,1.6032X1.4532*%
%ADD38R,1.5032X1.3532*%
%ADD39R,4.0532X5.2532*%
%ADD40R,1.2032X1.5532*%
%ADD41R,2.1082X2.9932*%
%ADD42R,1.8032X2.6032*%
%ADD43R,0.9532X0.5032*%
%ADD44R,1.4532X1.6032*%
%ADD45R,1.3032X1.7532*%
%ADD46R,1.7532X1.3032*%
%ADD47R,2.7032X2.2032*%
%ADD48R,2.7032X0.7032*%
%ADD49R,1.6032X1.1532*%
%ADD50R,0.8532X2.1282*%
%ADD51R,1.5532X1.2032*%
%ADD52R,1.7282X0.8532*%
%ADD53R,1.6032X2.2032*%
%ADD54R,5.2532X4.0532*%
%ADD55C,1.7272*%
%ADD56C,1.6032*%
%ADD57R,1.6032X1.6032*%
%ADD58C,2.6032*%
%ADD59C,3.4532*%
%ADD60R,1.7782X1.7782*%
%ADD61C,1.7782*%
%ADD62C,1.1032*%
%ADD63R,1.7782X1.7782*%
%ADD64C,1.7032*%
%ADD65C,1.7332*%
%ADD66C,2.4532*%
%ADD67R,1.7032X1.7032*%
%ADD68R,1.7032X1.7032*%
%ADD69C,1.7532*%
%ADD70R,1.7532X1.7532*%
%ADD71C,1.4732*%
D35*
X485740Y626520D02*
D03*
X490740D02*
D03*
X495740D02*
D03*
X500740D02*
D03*
X505740D02*
D03*
X510740D02*
D03*
X515740D02*
D03*
X520740D02*
D03*
X525740D02*
D03*
X530740D02*
D03*
X535740D02*
D03*
X540740D02*
D03*
X545740D02*
D03*
X550740D02*
D03*
X555740D02*
D03*
X560740D02*
D03*
Y511520D02*
D03*
X555740D02*
D03*
X550740D02*
D03*
X545740D02*
D03*
X540740D02*
D03*
X535740D02*
D03*
X530740D02*
D03*
X525740D02*
D03*
X520740D02*
D03*
X515740D02*
D03*
X510740D02*
D03*
X505740D02*
D03*
X500740D02*
D03*
X495740D02*
D03*
X490740D02*
D03*
X485740D02*
D03*
D36*
X580740Y606520D02*
D03*
Y601520D02*
D03*
Y596520D02*
D03*
Y591520D02*
D03*
Y586520D02*
D03*
Y581520D02*
D03*
Y576520D02*
D03*
Y571520D02*
D03*
Y566520D02*
D03*
Y561520D02*
D03*
Y556520D02*
D03*
Y551520D02*
D03*
Y546520D02*
D03*
Y541520D02*
D03*
Y536520D02*
D03*
Y531520D02*
D03*
X465740D02*
D03*
Y536520D02*
D03*
Y541520D02*
D03*
Y546520D02*
D03*
Y551520D02*
D03*
Y556520D02*
D03*
Y561520D02*
D03*
Y566520D02*
D03*
Y571520D02*
D03*
Y576520D02*
D03*
Y581520D02*
D03*
Y586520D02*
D03*
Y591520D02*
D03*
Y596520D02*
D03*
Y601520D02*
D03*
Y606520D02*
D03*
D37*
X535750Y428500D02*
D03*
Y411500D02*
D03*
X911535Y489304D02*
D03*
Y472304D02*
D03*
X833870Y499660D02*
D03*
Y482660D02*
D03*
X732790Y340030D02*
D03*
Y323030D02*
D03*
X815340Y340810D02*
D03*
Y357810D02*
D03*
X707921Y341300D02*
D03*
Y324300D02*
D03*
X831750Y752500D02*
D03*
Y769500D02*
D03*
X567690Y489890D02*
D03*
Y472890D02*
D03*
X449580Y481700D02*
D03*
Y498700D02*
D03*
X423290Y477970D02*
D03*
Y494970D02*
D03*
X443230Y636720D02*
D03*
Y653720D02*
D03*
X474980Y661240D02*
D03*
Y678240D02*
D03*
X564250Y432750D02*
D03*
Y415750D02*
D03*
X497840Y660850D02*
D03*
Y677850D02*
D03*
X633730Y613520D02*
D03*
Y630520D02*
D03*
X609600Y613470D02*
D03*
Y630470D02*
D03*
X392250Y572000D02*
D03*
Y555000D02*
D03*
X589000Y442250D02*
D03*
Y425250D02*
D03*
X923810Y632910D02*
D03*
Y649910D02*
D03*
X807720Y482660D02*
D03*
Y499660D02*
D03*
X369810Y616000D02*
D03*
Y633000D02*
D03*
X420000Y556000D02*
D03*
Y573000D02*
D03*
D38*
X883560Y552510D02*
D03*
X902060D02*
D03*
D39*
X885190Y348460D02*
D03*
Y406460D02*
D03*
X314709Y730521D02*
D03*
Y788521D02*
D03*
X186751Y548499D02*
D03*
Y490499D02*
D03*
X112999Y493001D02*
D03*
Y551001D02*
D03*
X415180Y206859D02*
D03*
Y148859D02*
D03*
D40*
X790050Y217230D02*
D03*
X772050D02*
D03*
X883810Y529650D02*
D03*
X901810D02*
D03*
X711028Y537537D02*
D03*
X729028D02*
D03*
X862440Y551520D02*
D03*
X844440D02*
D03*
X890380Y452180D02*
D03*
X872380D02*
D03*
D41*
X889120Y626520D02*
D03*
X840620D02*
D03*
D42*
X872490Y485200D02*
D03*
D43*
X887490Y495200D02*
D03*
Y490200D02*
D03*
Y485200D02*
D03*
Y480200D02*
D03*
Y475200D02*
D03*
X857490D02*
D03*
Y480200D02*
D03*
Y485200D02*
D03*
Y490200D02*
D03*
Y495200D02*
D03*
D44*
X758580Y452180D02*
D03*
X775580D02*
D03*
X757310Y475040D02*
D03*
X774310D02*
D03*
X587750Y508250D02*
D03*
X604750D02*
D03*
X848990Y576640D02*
D03*
X865990D02*
D03*
X612530Y342960D02*
D03*
X629530D02*
D03*
D45*
X733820Y511270D02*
D03*
X703820D02*
D03*
D46*
X497840Y873580D02*
D03*
Y843580D02*
D03*
D47*
X934395Y757840D02*
D03*
Y845840D02*
D03*
X879395Y757840D02*
D03*
Y845840D02*
D03*
D48*
Y785840D02*
D03*
Y817840D02*
D03*
Y801840D02*
D03*
Y793840D02*
D03*
Y809840D02*
D03*
D49*
X847750Y356500D02*
D03*
Y338000D02*
D03*
X764540Y350220D02*
D03*
Y368720D02*
D03*
D50*
X727710Y366830D02*
D03*
X715010D02*
D03*
X702310D02*
D03*
X676910D02*
D03*
X664210D02*
D03*
X651510D02*
D03*
X638810D02*
D03*
X626110D02*
D03*
X613410D02*
D03*
Y461070D02*
D03*
X626110D02*
D03*
X638810D02*
D03*
X651510D02*
D03*
X664210D02*
D03*
X676910D02*
D03*
X689610D02*
D03*
X702310D02*
D03*
X715010D02*
D03*
X727710D02*
D03*
X689610Y366830D02*
D03*
D51*
X521970Y728950D02*
D03*
Y710950D02*
D03*
X528320Y862500D02*
D03*
Y844500D02*
D03*
D52*
X909770Y678240D02*
D03*
Y690940D02*
D03*
Y703640D02*
D03*
Y716340D02*
D03*
X855530D02*
D03*
Y703640D02*
D03*
Y690940D02*
D03*
Y678240D02*
D03*
D53*
X369810Y675950D02*
D03*
Y745950D02*
D03*
X399810Y675950D02*
D03*
Y745950D02*
D03*
D54*
X226910Y259140D02*
D03*
X168910D02*
D03*
D55*
X22500Y919500D02*
D03*
X935990D02*
D03*
X22500Y25460D02*
D03*
X935990D02*
D03*
D56*
X690880Y185090D02*
D03*
X716280D02*
D03*
X792480Y159690D02*
D03*
X817880D02*
D03*
X830580Y185090D02*
D03*
X843280Y159690D02*
D03*
X855980Y185090D02*
D03*
X703580Y159690D02*
D03*
X678180D02*
D03*
X665480Y185090D02*
D03*
X652780Y159690D02*
D03*
X640080Y185090D02*
D03*
X779780D02*
D03*
X805180D02*
D03*
X756700Y270320D02*
D03*
X806700D02*
D03*
X831700D02*
D03*
D57*
X767080Y159690D02*
D03*
X627380D02*
D03*
X856700Y270320D02*
D03*
D58*
X741680Y198590D02*
D03*
X896030Y50490D02*
D03*
X587330D02*
D03*
D59*
X868680Y96190D02*
D03*
X614680D02*
D03*
D60*
X304750Y48320D02*
D03*
X533400D02*
D03*
X256250Y632050D02*
D03*
X27500D02*
D03*
D61*
X304750Y73720D02*
D03*
Y99120D02*
D03*
Y124520D02*
D03*
Y149920D02*
D03*
Y175320D02*
D03*
Y200720D02*
D03*
Y226120D02*
D03*
X55880Y345500D02*
D03*
X81280D02*
D03*
X106680D02*
D03*
X132080D02*
D03*
X157480D02*
D03*
X182880D02*
D03*
X208280D02*
D03*
X533400Y226120D02*
D03*
Y200720D02*
D03*
Y175320D02*
D03*
Y149920D02*
D03*
Y124520D02*
D03*
Y99120D02*
D03*
Y73720D02*
D03*
X256250Y606650D02*
D03*
Y581250D02*
D03*
Y555850D02*
D03*
Y530450D02*
D03*
Y505050D02*
D03*
Y479650D02*
D03*
Y454250D02*
D03*
X27500Y606650D02*
D03*
Y581250D02*
D03*
Y555850D02*
D03*
Y530450D02*
D03*
Y505050D02*
D03*
Y479650D02*
D03*
Y454250D02*
D03*
X208280Y116900D02*
D03*
X182880D02*
D03*
X157480D02*
D03*
X132080D02*
D03*
X106680D02*
D03*
X81280D02*
D03*
X55880D02*
D03*
D62*
X905395Y779840D02*
D03*
Y823840D02*
D03*
D63*
X233680Y345500D02*
D03*
Y116900D02*
D03*
D64*
X38100Y231200D02*
D03*
X35750Y754500D02*
D03*
X444500Y720150D02*
D03*
Y745550D02*
D03*
X570230Y778570D02*
D03*
X595630D02*
D03*
X621030D02*
D03*
X646430D02*
D03*
X671830D02*
D03*
X799710Y725230D02*
D03*
X774310Y699830D02*
D03*
X799710D02*
D03*
X774310Y674430D02*
D03*
X799710D02*
D03*
X774310Y649030D02*
D03*
X799710D02*
D03*
X774310Y623630D02*
D03*
X799710D02*
D03*
X774310Y598230D02*
D03*
X799710D02*
D03*
X774310Y572830D02*
D03*
X799710D02*
D03*
X774310Y547430D02*
D03*
X799710D02*
D03*
D65*
X81300Y261200D02*
D03*
Y231200D02*
D03*
Y201200D02*
D03*
X78950Y784500D02*
D03*
Y754500D02*
D03*
Y724500D02*
D03*
D66*
X661700Y302320D02*
D03*
Y238320D02*
D03*
X901700D02*
D03*
Y302320D02*
D03*
D67*
X444500Y694750D02*
D03*
X774310Y725230D02*
D03*
D68*
X544830Y778570D02*
D03*
D69*
X318770Y867470D02*
D03*
X344170D02*
D03*
X369570D02*
D03*
X394970D02*
D03*
X420370D02*
D03*
D70*
X445770D02*
D03*
D71*
X350250Y594420D02*
D03*
X844250Y522500D02*
D03*
X826000Y447930D02*
D03*
X67500Y408750D02*
D03*
X153000Y65250D02*
D03*
X364000Y503000D02*
D03*
X526500Y341250D02*
D03*
X315000Y421500D02*
D03*
X414500Y69250D02*
D03*
X210250Y165250D02*
D03*
X653000Y503760D02*
D03*
X929250Y595750D02*
D03*
X838250Y843000D02*
D03*
X723000Y712750D02*
D03*
X661750Y675250D02*
D03*
X638250Y736250D02*
D03*
X372000Y814000D02*
D03*
X559250Y845750D02*
D03*
X323250Y657250D02*
D03*
X150250Y749500D02*
D03*
X206561Y845250D02*
D03*
X81000Y844250D02*
D03*
X829310Y730310D02*
D03*
X500740Y538540D02*
D03*
X417669Y610342D02*
D03*
X502920Y464880D02*
D03*
X467360Y468690D02*
D03*
X485140Y466150D02*
D03*
X434340Y383600D02*
D03*
X415290Y289620D02*
D03*
X515740Y594420D02*
D03*
X497840Y575363D02*
D03*
X339090Y279460D02*
D03*
X212090Y300500D02*
D03*
X549910Y575363D02*
D03*
M02*
